<svg xmlns="http://www.w3.org/2000/svg" width="100" height="100" viewBox="0 0 100 100"><g fill="rgba(0,0,0,0)" stroke="rgba(0,0,0,0)" stroke-width="1"><rect width="100" height="100" stroke="none"/><rect x="0.5" y="0.5" width="99" height="99" fill="none"/></g><path d="M11.5,13l-2,3Z" fill="rgba(0,0,0,0.61)"/><path d="M40.5,13l2,3Z" fill="rgba(0,0,0,0.61)"/><path d="M59.5,13l-2,3Z" fill="rgba(0,0,0,0.61)"/><path d="M88.5,13l2,3Z" fill="rgba(0,0,0,0.61)"/><path d="M17.5,20l-1,2Z" fill="rgba(0,0,0,0.61)"/><path d="M20.5,20l1,2Z" fill="rgba(0,0,0,0.61)"/><path d="M31.5,20l-1,2Z" fill="rgba(0,0,0,0.61)"/><path d="M34.5,20l1,2Z" fill="rgba(0,0,0,0.61)"/><path d="M65.5,20l-1,2Z" fill="rgba(0,0,0,0.61)"/><path d="M68.5,20l1,2Z" fill="rgba(0,0,0,0.61)"/><path d="M79.5,20l-1,2Z" fill="rgba(0,0,0,0.61)"/><path d="M82.5,20l1,2Z" fill="rgba(0,0,0,0.61)"/><path d="M16.5,24l1,2Z" fill="rgba(0,0,0,0.61)"/><path d="M21.5,24l-1,2Z" fill="rgba(0,0,0,0.61)"/><path d="M30.5,24l1,2Z" fill="rgba(0,0,0,0.61)"/><path d="M35.5,24l-1,2Z" fill="rgba(0,0,0,0.61)"/><path d="M64.5,24l1,2Z" fill="rgba(0,0,0,0.61)"/><path d="M69.5,24l-1,2Z" fill="rgba(0,0,0,0.61)"/><path d="M78.5,24l1,2Z" fill="rgba(0,0,0,0.61)"/><path d="M83.5,24l-1,2Z" fill="rgba(0,0,0,0.61)"/><path d="M82.5,36l-1,2Z" fill="rgba(0,0,0,0.61)"/><path d="M9.5,44l2,3Z" fill="rgba(0,0,0,0.61)"/><path d="M42.5,44l-2,3Z" fill="rgba(0,0,0,0.61)"/><path d="M57.5,44l2,3Z" fill="rgba(0,0,0,0.61)"/><path d="M90.5,44l-2,3Z" fill="rgba(0,0,0,0.61)"/><path d="M27.5,61l-1,2Z" fill="rgba(0,0,0,0.61)"/><path d="M72.5,61l1,2Z" fill="rgba(0,0,0,0.61)"/><path d="M28.5,65l-5,6Z" fill="rgba(0,0,0,0.61)"/><path d="M71.5,65l5,6Z" fill="rgba(0,0,0,0.61)"/><path d="M20.5,68l-1,2Z" fill="rgba(0,0,0,0.61)"/><path d="M79.5,68l1,2Z" fill="rgba(0,0,0,0.61)"/><path d="M55.5,69l.5,4.5H55l-1-2Z" fill="rgba(255,255,255,0.61)"/><path d="M54.5,81l.5,3.5H54Z" fill="rgba(255,255,255,0.61)"/><path d="M100,0V100H0ZM21,8l-8,4A30.451,30.451,0,0,0,4,25Q2,38,8,44q4,6,13,8,13,2,19-4,6-4,8-12,2-14-4-19L35,9A31.689,31.689,0,0,0,21,8ZM69,8l-8,4a30.451,30.451,0,0,0-9,13q-2,13,4,19a24.016,24.016,0,0,0,13,8q13,2,19-4,6-4,8-12,2-14-4-19L83,9A31.689,31.689,0,0,0,69,8ZM43,54q-12,2-18,9A33.562,33.562,0,0,0,13,82q-2,6,4,4,1-9,6-14l10-9,9-4q4,1,6-1l11,1,12,6q9,7,12,20v1h4L85,76l-6-9A43.942,43.942,0,0,0,62,55,57.475,57.475,0,0,0,43,54Zm5,8q-2,6,4,4Q54,60,48,62ZM34,66q-2,6,4,4Q40,64,34,66Zm28,0q-2,6,4,4Q68,64,62,66Zm-6,2L46,88v5l6,1,2-2,.559-7.833.058-.816L55,78l1-1ZM24,76q-2,6,4,4Q30,74,24,76Zm48,0q-2,6,4,4Q78,74,72,76Z" fill="rgba(255,255,255,0)"/><path d="M24.5,12q11.8.7,16.5,8.5,3,4,3,11Q42.3,40.8,35.5,45q-4,3-11,3Q15.3,46.3,11,39.5q-3-4-3-11l2-7L17.5,14ZM18,20q-3,1-2,5,1,2,5,1,2-1,1-4T18,20Zm14,0q-3,1-2,5,1,2,5,1,2-1,1-4T32,20ZM22,32l-2,1q-5,1-4,7h4l6-4q5,0,7,4,5,2,3-3Q33,30,22,32Z" fill="rgba(0,0,0,0)"/><path d="M72.5,12q11.8.7,16.5,8.5,3,4,3,11Q90.3,40.8,83.5,45q-4,3-11,3Q63.3,46.3,59,39.5q-3-4-3-11l2-7L65.5,14ZM66,20q-3,1-2,5,1,2,5,1,2-1,1-4T66,20Zm14,0q-3,1-2,5,1,2,5,1,2-1,1-4T80,20ZM64,32v4l6,4q7,2,11-1,4-1,3-7H81l-5,4q-6,0-8-4Z" fill="rgba(0,0,0,0)"/><path d="M23.5,8Q38.6,7.9,44,17.5q4.2,5.3,4,15Q46.3,43.3,38.5,48q-5.3,4.2-15,4Q12.7,50.3,8,42.5q-4.2-5.3-4-15Q5.7,16.7,13.5,12ZM22,12l-5,2A18.377,18.377,0,0,0,8,26q-1,9,2,14,4,6,12,8,9,1,14-2a19.127,19.127,0,0,0,8-11q1-10-2-14Q37,11,22,12Z" fill="rgba(255,255,255,0.98)"/><path d="M71.5,8Q86.6,7.9,92,17.5q4.2,5.3,4,15Q94.3,43.3,86.5,48q-5.3,4.2-15,4Q60.7,50.3,56,42.5q-4.2-5.3-4-15Q53.7,16.7,61.5,12ZM70,12l-5,2a18.377,18.377,0,0,0-9,12q-1,9,2,14,4,6,12,8,9,1,14-2a19.127,19.127,0,0,0,8-11q1-10-2-14Q85,11,70,12Z" fill="rgba(255,255,255,0.98)"/><path d="M18.5,20,22,22.5,19.5,26,16,23.5Z" fill="rgba(255,255,255,0.98)"/><path d="M32.5,20,36,22.5,33.5,26,30,23.5Z" fill="rgba(255,255,255,0.98)"/><path d="M66.5,20,70,22.5,67.5,26,64,23.5Z" fill="rgba(255,255,255,0.98)"/><path d="M80.5,20,84,22.5,81.5,26,78,23.5Z" fill="rgba(255,255,255,0.98)"/><path d="M24.5,32q8.4.1,11.5,5.5L34.5,40l-6-4h-5l-6,4L16,37.5A13.26,13.26,0,0,1,24.5,32Z" fill="rgba(255,255,255,0.98)"/><path d="M65.5,32l6,4h6l5-4L84,34.5Q80.9,39.9,72.5,40A12.773,12.773,0,0,1,64,34.5Z" fill="rgba(255,255,255,0.98)"/><path d="M46.5,54h7l9,2A39.888,39.888,0,0,1,79,67.5q5.9,6.6,8,17L84.5,86,79,73.5,71.5,65l-11-6q-6.7-2.3-17-1Q29.9,60.9,23,70.5L15.5,86,13,84.5q3-14,12.5-21.5l12-7Z" fill="rgba(255,255,255,0.98)"/><path d="M49.5,62,52,63.5,50.5,66,48,64.5Z" fill="rgba(255,255,255,0.98)"/><path d="M35.5,66,38,67.5,36.5,70,34,68.5Z" fill="rgba(255,255,255,0.98)"/><path d="M63.5,66,66,67.5,64.5,70,62,68.5Z" fill="rgba(255,255,255,0.98)"/><path d="M54.5,72l.5,8.5L53,93l-3.5,1L47,93l-1-3.5Z" fill="rgba(255,255,255,0.98)"/><path d="M25.5,76,28,77.5,26.5,80,24,78.5Z" fill="rgba(255,255,255,0.98)"/><path d="M73.5,76,76,77.5,74.5,80,72,78.5Z" fill="rgba(255,255,255,0.98)"/><path d="M15.5,15l-4,5Z" fill="rgba(0,0,0,0.28)"/><path d="M36.5,15l4,5Z" fill="rgba(0,0,0,0.28)"/><path d="M63.5,15l-4,5Z" fill="rgba(0,0,0,0.28)"/><path d="M84.5,15l4,5Z" fill="rgba(0,0,0,0.28)"/><path d="M67.5,32l2,3Z" fill="rgba(0,0,0,0.28)"/><path d="M80.5,32l-2,3Z" fill="rgba(0,0,0,0.28)"/><path d="M19.5,33l-1,2Z" fill="rgba(0,0,0,0.28)"/><path d="M32.5,33l1,2Z" fill="rgba(0,0,0,0.28)"/><path d="M64.5,35l3,4Z" fill="rgba(0,0,0,0.28)"/><path d="M21.5,37l-2,3Z" fill="rgba(0,0,0,0.28)"/><path d="M30.5,37l2,3Z" fill="rgba(0,0,0,0.28)"/><path d="M11.5,40l4,5Z" fill="rgba(0,0,0,0.28)"/><path d="M40.5,40l-4,5Z" fill="rgba(0,0,0,0.28)"/><path d="M59.5,40l4,5Z" fill="rgba(0,0,0,0.28)"/><path d="M88.5,40l-4,5Z" fill="rgba(0,0,0,0.28)"/><path d="M24.5,63l-3,4Z" fill="rgba(0,0,0,0.28)"/><path d="M75.5,63l3,4Z" fill="rgba(0,0,0,0.28)"/><path d="M55.5,74l.5,2.5H55Z" fill="rgba(255,255,255,0.28)"/><path d="M54.5,85l.5,2.5H54Z" fill="rgba(255,255,255,0.28)"/></svg>