<svg xmlns="http://www.w3.org/2000/svg" width="100" height="100" viewBox="0 0 100 100"><g fill="rgba(0,0,0,0)" stroke="rgba(0,0,0,0)" stroke-width="1"><rect width="100" height="100" stroke="none"/><rect x="0.5" y="0.5" width="99" height="99" fill="none"/></g><path d="M12.5,12l-1,2Z" fill="rgba(0,0,0,0.44)"/><path d="M39.5,12l1,2Z" fill="rgba(0,0,0,0.44)"/><path d="M60.5,12l-1,2Z" fill="rgba(0,0,0,0.44)"/><path d="M87.5,12l1,2Z" fill="rgba(0,0,0,0.44)"/><path d="M9.5,15l-1,2Z" fill="rgba(0,0,0,0.44)"/><path d="M42.5,15l1,2Z" fill="rgba(0,0,0,0.44)"/><path d="M57.5,15l-1,2Z" fill="rgba(0,0,0,0.44)"/><path d="M90.5,15l1,2Z" fill="rgba(0,0,0,0.44)"/><path d="M17.5,20l-1,2Z" fill="rgba(0,0,0,0.44)"/><path d="M20.5,20l1,2Z" fill="rgba(0,0,0,0.44)"/><path d="M31.5,20l-1,2Z" fill="rgba(0,0,0,0.44)"/><path d="M34.5,20l1,2Z" fill="rgba(0,0,0,0.44)"/><path d="M65.5,20l-1,2Z" fill="rgba(0,0,0,0.44)"/><path d="M68.5,20l1,2Z" fill="rgba(0,0,0,0.44)"/><path d="M79.5,20l-1,2Z" fill="rgba(0,0,0,0.44)"/><path d="M82.5,20l1,2Z" fill="rgba(0,0,0,0.44)"/><path d="M16.5,24l1,2Z" fill="rgba(0,0,0,0.44)"/><path d="M21.5,24l-1,2Z" fill="rgba(0,0,0,0.44)"/><path d="M30.5,24l1,2Z" fill="rgba(0,0,0,0.44)"/><path d="M35.5,24l-1,2Z" fill="rgba(0,0,0,0.44)"/><path d="M64.5,24l1,2Z" fill="rgba(0,0,0,0.44)"/><path d="M69.5,24l-1,2Z" fill="rgba(0,0,0,0.44)"/><path d="M78.5,24l1,2Z" fill="rgba(0,0,0,0.44)"/><path d="M83.5,24l-1,2Z" fill="rgba(0,0,0,0.44)"/><path d="M82.5,38l-1,2Z" fill="rgba(0,0,0,0.44)"/><path d="M8.5,43l1,2Z" fill="rgba(0,0,0,0.44)"/><path d="M43.5,43l-1,2Z" fill="rgba(0,0,0,0.44)"/><path d="M56.5,43l1,2Z" fill="rgba(0,0,0,0.44)"/><path d="M91.5,43l-1,2Z" fill="rgba(0,0,0,0.44)"/><path d="M11.5,46l1,2Z" fill="rgba(0,0,0,0.44)"/><path d="M40.5,46l-1,2Z" fill="rgba(0,0,0,0.44)"/><path d="M59.5,46l1,2Z" fill="rgba(0,0,0,0.44)"/><path d="M88.5,46l-1,2Z" fill="rgba(0,0,0,0.44)"/><path d="M26.5,67l-1,2Z" fill="rgba(0,0,0,0.44)"/><path d="M73.5,67l1,2Z" fill="rgba(0,0,0,0.44)"/><path d="M55.5,73l.5,2.5H55Z" fill="rgba(255,255,255,0.44)"/><path d="M24.5,8l3.5.5L24.5,9Z" fill="rgba(255,255,255,0.96)"/><path d="M72.5,8l3.5.5L72.5,9Z" fill="rgba(255,255,255,0.96)"/><path d="M4.5,28,5,31.5H4Z" fill="rgba(255,255,255,0.96)"/><path d="M47.5,28l.5,3.5H47Z" fill="rgba(255,255,255,0.96)"/><path d="M52.5,28l.5,3.5H52Z" fill="rgba(255,255,255,0.96)"/><path d="M95.5,28l.5,3.5H95Z" fill="rgba(255,255,255,0.96)"/><path d="M24.5,51l3.5.5-3.5.5Z" fill="rgba(255,255,255,0.96)"/><path d="M72.5,51l3.5.5-3.5.5Z" fill="rgba(255,255,255,0.96)"/><path d="M24.5,64l-2,3Z" fill="rgba(0,0,0,0.96)"/><path d="M75.5,64l2,3Z" fill="rgba(0,0,0,0.96)"/><path d="M13.5,83l.5,2,2,.5-1.5.5Z" fill="rgba(255,255,255,0.96)"/><path d="M86.5,83l.5,1.5L84.5,86V85Q87,85.7,86.5,83Z" fill="rgba(255,255,255,0)"/><path d="M20.5,9h11A21.185,21.185,0,0,1,43,16.5q5.8,5.7,4,19A21.185,21.185,0,0,1,39.5,47q-5.7,5.8-19,4A21.185,21.185,0,0,1,9,43.5q-5.8-5.7-4-19A21.185,21.185,0,0,1,12.5,13ZM16,20v6h6V20Zm14,0v6h6V20ZM22,34l-2,1q-5,1-4,7,5,1,7-3,8-2,10,3,5,2,3-3Q33,32,22,34Z" fill="#fff"/><path d="M68.5,9h11A21.185,21.185,0,0,1,91,16.5q5.8,5.7,4,19A21.185,21.185,0,0,1,87.5,47q-5.7,5.8-19,4A21.185,21.185,0,0,1,57,43.5q-5.8-5.7-4-19A21.185,21.185,0,0,1,60.5,13ZM64,20v6h6V20Zm14,0v6h6V20ZM64,34v4l6,4q7,2,11-1,4-1,3-7-5-1-6,3H71Q69,33,64,34Z" fill="#fff"/><path d="M49.5,54l12,2,7,3L81,70.5l5,10V85l-3-1.5Q80.1,69.4,69.5,63q-8.8-7.2-27-5Q28.8,61.3,22,71.5L15.5,85q-3.4.9-1.5-4.5A38,38,0,0,1,28.5,61l7-4Z" fill="#fff"/><path d="M49,63q3-1,2,2Q48,66,49,63Z" fill="#fff"/><path d="M35,67q3-1,2,2Q34,70,35,67Z" fill="#fff"/><path d="M63,67q3-1,2,2Q62,70,63,67Z" fill="#fff"/><path d="M54.5,72l.5,6.5-1,1v10L51.5,93q-3.7.8-4.5-1.5v-4Z" fill="#fff"/><path d="M25,77q3-1,2,2Q24,80,25,77Z" fill="#fff"/><path d="M73,77q3-1,2,2Q72,80,73,77Z" fill="#fff"/><path d="M65.5,34,65,35.5,64.5,37,64,35.5Z" fill="rgba(255,255,255,0.19)"/><path d="M81.5,34,84,35.5,83.5,37,83,35Z" fill="rgba(255,255,255,0.19)"/><path d="M16.5,39l.5,2,2,.5-1.5.5Z" fill="rgba(255,255,255,0.19)"/><path d="M25.5,62l-4,5Z" fill="rgba(0,0,0,0.19)"/><path d="M74.5,62l4,5Z" fill="rgba(0,0,0,0.19)"/><path d="M54.5,86l.5,2.5H54Z" fill="rgba(255,255,255,0.19)"/><path d="M46.5,92l1,2Z" fill="rgba(0,0,0,0.19)"/><path d="M53.5,92l-1,2Z" fill="rgba(0,0,0,0.19)"/><path d="M67.5,34l2,3Z" fill="rgba(0,0,0,0.66)"/><path d="M64.5,37l2,3Z" fill="rgba(0,0,0,0.66)"/><path d="M21.5,39l-2,3Z" fill="rgba(0,0,0,0.66)"/><path d="M30.5,39l2,3Z" fill="rgba(0,0,0,0.66)"/><path d="M28.5,65l-1,2Z" fill="rgba(0,0,0,0.66)"/><path d="M71.5,65l1,2Z" fill="rgba(0,0,0,0.66)"/><path d="M20.5,68l-1,2Z" fill="rgba(0,0,0,0.66)"/><path d="M24.5,69l-1,2Z" fill="rgba(0,0,0,0.66)"/><path d="M75.5,69l1,2Z" fill="rgba(0,0,0,0.66)"/><path d="M54.5,71q2.3-.7,1.5,1.5Z" fill="rgba(255,255,255,0.66)"/><path d="M80.5,34l-1,2Z" fill="rgba(0,0,0,0.85)"/><path d="M26.5,62l-1,2Z" fill="rgba(0,0,0,0.85)"/><path d="M49.5,62,52,63.5,50.5,66,48,64.5ZM49,63q-1,3,2,2Q52,62,49,63Z" fill="rgba(255,255,255,0.85)"/><path d="M73.5,62l1,2Z" fill="rgba(0,0,0,0.85)"/><path d="M35.5,66,38,67.5,36.5,70,34,68.5ZM35,67q-1,3,2,2Q38,66,35,67Z" fill="rgba(255,255,255,0.85)"/><path d="M63.5,66,66,67.5,64.5,70,62,68.5ZM63,67q-1,3,2,2Q66,66,63,67Z" fill="rgba(255,255,255,0.85)"/><path d="M25.5,76,28,77.5,26.5,80,24,78.5ZM25,77q-1,3,2,2Q28,76,25,77Z" fill="rgba(255,255,255,0.85)"/><path d="M73.5,76,76,77.5,74.5,80,72,78.5ZM73,77q-1,3,2,2Q76,76,73,77Z" fill="rgba(255,255,255,0.85)"/><path d="M0,0H100V100H0ZM21,8l-7,3Q6,15,4,25,2,37,7,43q4,7,14,9,12,2,18-3,7-4,9-13,2-13-3-18Q39,6,21,8ZM69,8l-7,3q-8,4-10,14-2,12,3,18,4,7,14,9,12,2,18-3,7-4,9-13,2-13-3-18Q87,6,69,8ZM43,54q-11,2-17,8A38.969,38.969,0,0,0,13,81q-2,7,4,5a26.539,26.539,0,0,1,6-14l10-9,9-4q5,2,7-1l10,1,12,6q9,7,12,20v1h4q-1-13-8-19A44.541,44.541,0,0,0,65,56Q56,52,43,54Zm5,8q-2,6,4,4Q54,60,48,62ZM34,66q-2,6,4,4Q40,64,34,66Zm28,0q-2,6,4,4Q68,64,62,66Zm-6,2L46,88v5q1,2,7,1l2-5V79l1-1ZM24,76q-2,6,4,4Q30,74,24,76Zm48,0q-2,6,4,4Q78,74,72,76Z" fill="rgba(255,255,255,0)"/><path d="M17,21q6-2,4,4Q15,27,17,21Z" fill="rgba(0,0,0,0)"/><path d="M31,21q6-2,4,4Q29,27,31,21Z" fill="rgba(0,0,0,0)"/><path d="M65,21q6-2,4,4Q63,27,65,21Z" fill="rgba(0,0,0,0)"/><path d="M79,21q6-2,4,4Q77,27,79,21Z" fill="rgba(0,0,0,0)"/><path d="M25.5,34q6.6.4,9.5,4.5,1.5,4.4-1.5,3.5-1.8-5.7-11-4-1.2,3.8-5.5,3-.7-3.8,2.5-5Z" fill="rgba(0,0,0,0)"/><path d="M66.5,34q1.8,5.8,11,4,1.3-3.8,5.5-3,.8,3.8-2.5,5l-8,2L65,37.5Z" fill="rgba(0,0,0,0)"/></svg>