<svg xmlns="http://www.w3.org/2000/svg" width="100" height="100" viewBox="0 0 100 100"><g fill="rgba(0,0,0,0)" stroke="rgba(0,0,0,0)" stroke-width="1"><rect width="100" height="100" stroke="none"/><rect x="0.5" y="0.5" width="99" height="99" fill="none"/></g><path d="M0,0H100V100H0ZM14,4V96H67L86,77V4Z" fill="rgba(0,0,0,0)"/><path d="M18,8H82V74H64V91.5l-.5.5H18ZM30,26v4h6V26Zm12,0,1,4H70V26ZM30,38v4h6V38Zm12,0,1,4H70V38ZM30,50v4h6V50Zm12,0,1,4H70V50ZM30,62v4h6V62Zm12,0,1,4H70V62Z" fill="rgba(0,0,0,0)"/><path d="M68,78l11,.5-11,10Z" fill="rgba(0,0,0,0)"/><path d="M85.5,76l-19,20Z" fill="rgba(0,0,0,0.98)"/><path d="M79.5,78l-11,12Z" fill="rgba(0,0,0,0.98)"/><path d="M14,4H86V75.5L65.5,96H14Zm4,4V92H64V74H82V8ZM68,78V90L80,79Z" fill="#fff"/><path d="M30,26h6v4H30Z" fill="#fff"/><path d="M42,26H69.5l.5,4H42.5Z" fill="#fff"/><path d="M30,38h6v4H30Z" fill="#fff"/><path d="M42,38H69.5l.5,4H42.5Z" fill="#fff"/><path d="M30,50h6v4H30Z" fill="#fff"/><path d="M42,50H69.5l.5,4H42.5Z" fill="#fff"/><path d="M30,62h6v4H30Z" fill="#fff"/><path d="M42,62H69.5l.5,4H42.5Z" fill="#fff"/></svg>