<svg xmlns="http://www.w3.org/2000/svg" width="90" height="90" viewBox="0 0 90 90"><g fill="rgba(0,0,0,0)" stroke="rgba(0,0,0,0)" stroke-width="1"><rect width="90" height="90" stroke="none"/><rect x="0.5" y="0.5" width="89" height="89" fill="none"/></g><path d="M22.5,16l-6,7Z" fill="rgba(0,0,0,0.2)"/><path d="M67.5,16l6,7Z" fill="rgba(0,0,0,0.2)"/><path d="M41.5,24l2.5.5-2.5.5Z" fill="rgba(255,255,255,0.2)"/><path d="M47.5,24l2.5.5-2.5.5Z" fill="rgba(255,255,255,0.2)"/><path d="M34.5,27l-5,6Z" fill="rgba(0,0,0,0.2)"/><path d="M65.5,40l.5,2.5H65Z" fill="rgba(255,255,255,0.2)"/><path d="M27.5,41l.5,2.5H27Z" fill="rgba(255,255,255,0.2)"/><path d="M41.5,46l.5,2,2,.5-1.5.5Z" fill="rgba(255,255,255,0.2)"/><path d="M65.5,46l.5,2.5H65Z" fill="rgba(255,255,255,0.2)"/><path d="M28.5,48l-14,15L13,62.5Z" fill="rgba(255,255,255,0.2)"/><path d="M62.5,55l-5,6Z" fill="rgba(0,0,0,0.2)"/><path d="M41.5,61,28,75.5,27.5,77,27,75.5Z" fill="rgba(255,255,255,0.2)"/><path d="M46.5,62l2.5.5-2.5.5Z" fill="rgba(255,255,255,0.2)"/><path d="M73.5,67l-6,7Z" fill="rgba(0,0,0,0.2)"/><path d="M39.5,9l3.5.5-3.5.5Z" fill="rgba(255,255,255,0.8)"/><path d="M47.5,9l3.5.5-3.5.5Z" fill="rgba(255,255,255,0.8)"/><path d="M24.5,15l-1,2Z" fill="rgba(0,0,0,0.8)"/><path d="M65.5,15l1,2Z" fill="rgba(0,0,0,0.8)"/><path d="M16.5,23l-1,2Z" fill="rgba(0,0,0,0.8)"/><path d="M73.5,23l1,2Z" fill="rgba(0,0,0,0.8)"/><path d="M49.5,25,40,35.5,39.5,38,39,35.5Z" fill="rgba(255,255,255,0.8)"/><path d="M32.5,28l-2,3Z" fill="rgba(0,0,0,0.8)"/><path d="M9.5,39l.5,3.5H9Z" fill="rgba(255,255,255,0.8)"/><path d="M80.5,39l.5,3.5H80Z" fill="rgba(255,255,255,0.8)"/><path d="M64.5,40l-10,11L52,50.5l2.5-.5Z" fill="rgba(255,255,255,0.8)"/><path d="M28.5,46l.5,1.5L13.5,62V61L28,47.5Z" fill="rgba(255,255,255,0.8)"/><path d="M80.5,47l.5,3.5H80Z" fill="rgba(255,255,255,0.8)"/><path d="M9.5,48l.5,2.5H9Z" fill="rgba(255,255,255,0.8)"/><path d="M61.5,57l-2,3Z" fill="rgba(0,0,0,0.8)"/><path d="M42.5,61l1.5.5-15,14L28.5,77,28,75.5Z" fill="rgba(255,255,255,0.8)"/><path d="M74.5,65l-1,2Z" fill="rgba(0,0,0,0.8)"/><path d="M66.5,73l-1,2Z" fill="rgba(0,0,0,0.8)"/><path d="M39.5,80l2.5.5-2.5.5Z" fill="rgba(255,255,255,0.8)"/><path d="M47.5,80l3.5.5-3.5.5Z" fill="rgba(255,255,255,0.8)"/><path d="M43.5,9l3.5.5-3.5.5Z" fill="rgba(255,255,255,1)"/><path d="M22.5,17l-5,6Z" fill="rgba(0,0,0,1)"/><path d="M67.5,17l5,6Z" fill="rgba(0,0,0,1)"/><path d="M9.5,43l.5,4.5H9Z" fill="rgba(255,255,255,1)"/><path d="M80.5,43l.5,3.5H80Z" fill="rgba(255,255,255,1)"/><path d="M72.5,67l-5,6Z" fill="rgba(0,0,0,1)"/><path d="M0,0H90V90H0ZM38,9,23,16Q13,24,9,38V53l4,10h2L29,49l-2-8,2-7q5-8,16-10l4,1L39,36l2,12,10,3h4L65,41l1,3-1,7-2,4q-4,6-12,8l-9-2L27,76v1l11,4H53l15-7q9-8,13-21V38L74,23A40.238,40.238,0,0,0,57,10,57.475,57.475,0,0,0,38,9Z" fill="rgba(0,0,0,0)"/><path d="M37.5,10q13.4-1.9,21,2A36.828,36.828,0,0,1,74,24.5l6,13v15Q76.1,66.6,65.5,74l-7,4-14,3L29,77V75.5l7.184-7.184L42.5,62q3.8,2.7,12,1L63,56.5q4.8-5.2,3-17L54.5,50,42,48,40,35.5,50.5,24h-11A21.071,21.071,0,0,0,29,31.5q-3.7,4.3-2,14l1,2L14.5,61H13l-3-8.5v-15Q13.9,23.4,24.5,16Z" fill="#fff"/></svg>