<svg xmlns="http://www.w3.org/2000/svg" width="90" height="90" viewBox="0 0 90 90"><g fill="rgba(0,0,0,0)" stroke="rgba(0,0,0,0)" stroke-width="1"><rect width="90" height="90" stroke="none"/><rect x="0.5" y="0.5" width="89" height="89" fill="none"/></g><path d="M11.5,10l-1,2Z" fill="rgba(0,0,0,0.83)"/><path d="M77.5,31l11,12Z" fill="rgba(0,0,0,0.83)"/><path d="M73.5,35l6,7Z" fill="rgba(0,0,0,0.83)"/><path d="M88.5,47l-11,12Z" fill="rgba(0,0,0,0.83)"/><path d="M79.5,48l-6,7Z" fill="rgba(0,0,0,0.83)"/><path d="M72.5,58l1,2Z" fill="rgba(0,0,0,0.83)"/><path d="M10.5,78l1,2Z" fill="rgba(0,0,0,0.83)"/><path d="M61.5,78l-1,2Z" fill="rgba(0,0,0,0.83)"/><path d="M14.5,9h29L62,26.5l1,2V42l17-.5-8-9L75.5,30,89,43.5v3L74.5,60,72,56.5,79.5,48H63V75.5L59.5,80l-2,1h-43L10,77.5l-1-2v-61L12.5,10ZM41,42q-3,1-2,5l2,1H63V42Z" fill="#fff"/><path d="M46.5,10l15,16Z" fill="rgba(0,0,0,0.41)"/><path d="M73.5,30l-1,2Z" fill="rgba(0,0,0,0.41)"/><path d="M40.5,42l-1,2Z" fill="rgba(0,0,0,0.41)"/><path d="M39.5,46l1,2Z" fill="rgba(0,0,0,0.41)"/><path d="M0,0H90V41.5L77.5,30q-8.2-2.7-5.5,5.5L77.5,42H63v6l15,.5-6,6V60h5.5l12-12L90,90H0ZM12,9,9,12V79l3,2H61l2-2V48H43l-1-1H40V43l3-1H63V27L46,9Z" fill="rgba(255,255,255,0)"/><path d="M11.5,9l-2,3Z" fill="rgba(0,0,0,0.04)"/><path d="M77.5,30l12,13Z" fill="rgba(0,0,0,0.04)"/><path d="M72.5,35l6,7Z" fill="rgba(0,0,0,0.04)"/><path d="M89.5,47l-12,13Z" fill="rgba(0,0,0,0.04)"/><path d="M78.5,48l-6,7Z" fill="rgba(0,0,0,0.04)"/><path d="M9.5,78l2,3Z" fill="rgba(0,0,0,0.04)"/><path d="M62.5,78l-2,3Z" fill="rgba(0,0,0,0.04)"/></svg>