<svg xmlns="http://www.w3.org/2000/svg" width="100" height="100" viewBox="0 0 100 100"><g fill="rgba(0,0,0,0)" stroke="rgba(0,0,0,0)" stroke-width="1"><rect width="100" height="100" stroke="none"/><rect x="0.5" y="0.5" width="99" height="99" fill="none"/></g><path d="M0,0H100V100H0ZM49,2,2,35v9l2,1H6L50,14,95,45h2l1-1V35L54,3Zm1,16L10,46V94H36V66l4-10,10-4,9,3,2,3,3,8V94H90V46Z" fill="rgba(0,0,0,0)"/><path d="M46.5,3l-1,2Z" fill="rgba(0,0,0,0.15)"/><path d="M30.5,14l-1,2Z" fill="rgba(0,0,0,0.15)"/><path d="M54.5,16l1,2Z" fill="rgba(0,0,0,0.15)"/><path d="M41.5,23l-1,2Z" fill="rgba(0,0,0,0.15)"/><path d="M14.5,25l-1,2Z" fill="rgba(0,0,0,0.15)"/><path d="M67.5,25l1,2Z" fill="rgba(0,0,0,0.15)"/><path d="M88.5,27l1,2Z" fill="rgba(0,0,0,0.15)"/><path d="M71.5,32l1,2Z" fill="rgba(0,0,0,0.15)"/><path d="M19.5,34l-1,2Z" fill="rgba(0,0,0,0.15)"/><path d="M80.5,34l1,2Z" fill="rgba(0,0,0,0.15)"/><path d="M83.5,36l1,2Z" fill="rgba(0,0,0,0.15)"/><path d="M6.5,43l-1,2Z" fill="rgba(0,0,0,0.15)"/><path d="M12.5,43l-1,2Z" fill="rgba(0,0,0,0.15)"/><path d="M93.5,43l1,2Z" fill="rgba(0,0,0,0.15)"/><path d="M42.5,54l-1,2Z" fill="rgba(0,0,0,0.15)"/><path d="M39.5,57l-1,2Z" fill="rgba(0,0,0,0.15)"/><path d="M48.5,2l-1,2Z" fill="rgba(0,0,0,0.52)"/><path d="M54.5,4l1,2Z" fill="rgba(0,0,0,0.52)"/><path d="M32.5,13l-1,2Z" fill="rgba(0,0,0,0.52)"/><path d="M46.5,15l-1,2Z" fill="rgba(0,0,0,0.52)"/><path d="M70.5,15l1,2Z" fill="rgba(0,0,0,0.52)"/><path d="M56.5,17l1,2Z" fill="rgba(0,0,0,0.52)"/><path d="M43.5,22l-1,2Z" fill="rgba(0,0,0,0.52)"/><path d="M16.5,24l-1,2Z" fill="rgba(0,0,0,0.52)"/><path d="M33.5,24l-1,2Z" fill="rgba(0,0,0,0.52)"/><path d="M59.5,24l1,2Z" fill="rgba(0,0,0,0.52)"/><path d="M69.5,26l1,2Z" fill="rgba(0,0,0,0.52)"/><path d="M86.5,26l1,2Z" fill="rgba(0,0,0,0.52)"/><path d="M30.5,31l-1,2Z" fill="rgba(0,0,0,0.52)"/><path d="M3.5,33l-1,2Z" fill="rgba(0,0,0,0.52)"/><path d="M27.5,33l-1,2Z" fill="rgba(0,0,0,0.52)"/><path d="M96.5,33l1,2Z" fill="rgba(0,0,0,0.52)"/><path d="M17.5,35l-1,2Z" fill="rgba(0,0,0,0.52)"/><path d="M14.5,42l-1,2Z" fill="rgba(0,0,0,0.52)"/><path d="M85.5,42l1,2Z" fill="rgba(0,0,0,0.52)"/><path d="M2.5,43,5,44.5,3.5,45Z" fill="rgba(255,255,255,0.52)"/><path d="M52.5,3l1,2Z" fill="rgba(0,0,0,0.9)"/><path d="M68.5,14l1,2Z" fill="rgba(0,0,0,0.9)"/><path d="M44.5,16l-1,2Z" fill="rgba(0,0,0,0.9)"/><path d="M57.5,23l1,2Z" fill="rgba(0,0,0,0.9)"/><path d="M31.5,25l-1,2Z" fill="rgba(0,0,0,0.9)"/><path d="M84.5,25l1,2Z" fill="rgba(0,0,0,0.9)"/><path d="M70.5,32l1,2Z" fill="rgba(0,0,0,0.9)"/><path d="M84.5,36l1,2Z" fill="rgba(0,0,0,0.9)"/><path d="M16.5,41l-1,2Z" fill="rgba(0,0,0,0.9)"/><path d="M83.5,41l1,2Z" fill="rgba(0,0,0,0.9)"/><path d="M41.5,54l-3,4Z" fill="rgba(0,0,0,0.9)"/><path d="M58.5,54l3,4Z" fill="rgba(0,0,0,0.9)"/><path d="M10.5,92l1,2Z" fill="rgba(0,0,0,0.9)"/><path d="M35.5,92l-1,2Z" fill="rgba(0,0,0,0.9)"/><path d="M64.5,92l1,2Z" fill="rgba(0,0,0,0.9)"/><path d="M89.5,92l-1,2Z" fill="rgba(0,0,0,0.9)"/><path d="M48.5,3h3L98,35.5q1.8,6.8-1.5,8.5l-47-31L3.5,44Q.3,42.3,2,35.5Z" fill="#fff"/><path d="M49.5,19,90,46.5v45L87.5,94h-21L64,91.5v-30L58.5,54q-4-3.5-13-2L38,57.5l-2,4v30L33.5,94h-21L10,91.5v-45L11.5,45Z" fill="#fff"/></svg>