<svg xmlns="http://www.w3.org/2000/svg" width="100" height="100" viewBox="0 0 100 100"><g fill="rgba(0,0,0,0)" stroke="rgba(0,0,0,0)" stroke-width="1"><rect width="100" height="100" stroke="none"/><rect x="0.5" y="0.5" width="99" height="99" fill="none"/></g><path d="M46.5,3l-1,2Z" fill="rgba(0,0,0,0.18)"/><path d="M53.5,3l1,2Z" fill="rgba(0,0,0,0.18)"/><path d="M48.5,7l-1,2Z" fill="rgba(0,0,0,0.18)"/><path d="M51.5,7l1,2Z" fill="rgba(0,0,0,0.18)"/><path d="M54.5,9l1,2Z" fill="rgba(0,0,0,0.18)"/><path d="M36.5,10l-1,2Z" fill="rgba(0,0,0,0.18)"/><path d="M63.5,10l1,2Z" fill="rgba(0,0,0,0.18)"/><path d="M33.5,12l-1,2Z" fill="rgba(0,0,0,0.18)"/><path d="M46.5,12l-1,2Z" fill="rgba(0,0,0,0.18)"/><path d="M66.5,12l1,2Z" fill="rgba(0,0,0,0.18)"/><path d="M30.5,14l-1,2Z" fill="rgba(0,0,0,0.18)"/><path d="M38.5,14l-1,2Z" fill="rgba(0,0,0,0.18)"/><path d="M43.5,14l-1,2Z" fill="rgba(0,0,0,0.18)"/><path d="M56.5,14l1,2Z" fill="rgba(0,0,0,0.18)"/><path d="M61.5,14l1,2Z" fill="rgba(0,0,0,0.18)"/><path d="M69.5,14l1,2Z" fill="rgba(0,0,0,0.18)"/><path d="M35.5,16l-1,2Z" fill="rgba(0,0,0,0.18)"/><path d="M40.5,16l-1,2Z" fill="rgba(0,0,0,0.18)"/><path d="M59.5,16l1,2Z" fill="rgba(0,0,0,0.18)"/><path d="M64.5,16l1,2Z" fill="rgba(0,0,0,0.18)"/><path d="M32.5,18l-1,2Z" fill="rgba(0,0,0,0.18)"/><path d="M45.5,18l-1,2Z" fill="rgba(0,0,0,0.18)"/><path d="M54.5,18l1,2Z" fill="rgba(0,0,0,0.18)"/><path d="M62.5,18l1,2Z" fill="rgba(0,0,0,0.18)"/><path d="M67.5,18l1,2Z" fill="rgba(0,0,0,0.18)"/><path d="M42.5,20l-1,2Z" fill="rgba(0,0,0,0.18)"/><path d="M57.5,20l1,2Z" fill="rgba(0,0,0,0.18)"/><path d="M70.5,20l1,2Z" fill="rgba(0,0,0,0.18)"/><path d="M20.5,21l-1,2Z" fill="rgba(0,0,0,0.18)"/><path d="M60.5,22l1,2Z" fill="rgba(0,0,0,0.18)"/><path d="M17.5,23l-1,2Z" fill="rgba(0,0,0,0.18)"/><path d="M30.5,23l-1,2Z" fill="rgba(0,0,0,0.18)"/><path d="M82.5,23l1,2Z" fill="rgba(0,0,0,0.18)"/><path d="M14.5,25l-1,2Z" fill="rgba(0,0,0,0.18)"/><path d="M22.5,25l-1,2Z" fill="rgba(0,0,0,0.18)"/><path d="M27.5,25l-1,2Z" fill="rgba(0,0,0,0.18)"/><path d="M72.5,25l1,2Z" fill="rgba(0,0,0,0.18)"/><path d="M85.5,25l1,2Z" fill="rgba(0,0,0,0.18)"/><path d="M19.5,27l-1,2Z" fill="rgba(0,0,0,0.18)"/><path d="M32.5,27l-1,2Z" fill="rgba(0,0,0,0.18)"/><path d="M67.5,27l1,2Z" fill="rgba(0,0,0,0.18)"/><path d="M75.5,27l1,2Z" fill="rgba(0,0,0,0.18)"/><path d="M80.5,27l1,2Z" fill="rgba(0,0,0,0.18)"/><path d="M16.5,29l-1,2Z" fill="rgba(0,0,0,0.18)"/><path d="M29.5,29l-1,2Z" fill="rgba(0,0,0,0.18)"/><path d="M70.5,29l1,2Z" fill="rgba(0,0,0,0.18)"/><path d="M83.5,29l1,2Z" fill="rgba(0,0,0,0.18)"/><path d="M73.5,31l1,2Z" fill="rgba(0,0,0,0.18)"/><path d="M86.5,31l1,2Z" fill="rgba(0,0,0,0.18)"/><path d="M17.5,32l-1,2Z" fill="rgba(0,0,0,0.18)"/><path d="M82.5,32l1,2Z" fill="rgba(0,0,0,0.18)"/><path d="M14.5,34l-1,2Z" fill="rgba(0,0,0,0.18)"/><path d="M85.5,34l1,2Z" fill="rgba(0,0,0,0.18)"/><path d="M11.5,36l-1,2Z" fill="rgba(0,0,0,0.18)"/><path d="M19.5,36l-1,2Z" fill="rgba(0,0,0,0.18)"/><path d="M88.5,36l1,2Z" fill="rgba(0,0,0,0.18)"/><path d="M16.5,38l-1,2Z" fill="rgba(0,0,0,0.18)"/><path d="M83.5,38l1,2Z" fill="rgba(0,0,0,0.18)"/><path d="M41.5,7l-1,2Z" fill="rgba(0,0,0,0.78)"/><path d="M58.5,7l1,2Z" fill="rgba(0,0,0,0.78)"/><path d="M46.5,8l-1,2Z" fill="rgba(0,0,0,0.78)"/><path d="M38.5,9l-1,2Z" fill="rgba(0,0,0,0.78)"/><path d="M61.5,9l1,2Z" fill="rgba(0,0,0,0.78)"/><path d="M43.5,10l-1,2Z" fill="rgba(0,0,0,0.78)"/><path d="M56.5,10l1,2Z" fill="rgba(0,0,0,0.78)"/><path d="M48.5,11l-1,2Z" fill="rgba(0,0,0,0.78)"/><path d="M51.5,11l1,2Z" fill="rgba(0,0,0,0.78)"/><path d="M59.5,12l1,2Z" fill="rgba(0,0,0,0.78)"/><path d="M54.5,13l1,2Z" fill="rgba(0,0,0,0.78)"/><path d="M25.5,18l-1,2Z" fill="rgba(0,0,0,0.78)"/><path d="M74.5,18l1,2Z" fill="rgba(0,0,0,0.78)"/><path d="M30.5,19l-1,2Z" fill="rgba(0,0,0,0.78)"/><path d="M22.5,20l-1,2Z" fill="rgba(0,0,0,0.78)"/><path d="M35.5,20l-1,2Z" fill="rgba(0,0,0,0.78)"/><path d="M64.5,20l1,2Z" fill="rgba(0,0,0,0.78)"/><path d="M77.5,20l1,2Z" fill="rgba(0,0,0,0.78)"/><path d="M27.5,21l-1,2Z" fill="rgba(0,0,0,0.78)"/><path d="M40.5,21l-1,2Z" fill="rgba(0,0,0,0.78)"/><path d="M72.5,21l1,2Z" fill="rgba(0,0,0,0.78)"/><path d="M32.5,22l-1,2Z" fill="rgba(0,0,0,0.78)"/><path d="M67.5,22l1,2Z" fill="rgba(0,0,0,0.78)"/><path d="M80.5,22l1,2Z" fill="rgba(0,0,0,0.78)"/><path d="M24.5,23l-1,2Z" fill="rgba(0,0,0,0.78)"/><path d="M37.5,23l-1,2Z" fill="rgba(0,0,0,0.78)"/><path d="M62.5,23l1,2Z" fill="rgba(0,0,0,0.78)"/><path d="M75.5,23l1,2Z" fill="rgba(0,0,0,0.78)"/><path d="M70.5,24l1,2Z" fill="rgba(0,0,0,0.78)"/><path d="M34.5,25l-1,2Z" fill="rgba(0,0,0,0.78)"/><path d="M65.5,25l1,2Z" fill="rgba(0,0,0,0.78)"/><path d="M9.5,29l-1,2Z" fill="rgba(0,0,0,0.78)"/><path d="M22.5,29l-1,2Z" fill="rgba(0,0,0,0.78)"/><path d="M77.5,29l1,2Z" fill="rgba(0,0,0,0.78)"/><path d="M90.5,29l1,2Z" fill="rgba(0,0,0,0.78)"/><path d="M14.5,30l-1,2Z" fill="rgba(0,0,0,0.78)"/><path d="M27.5,30l-1,2Z" fill="rgba(0,0,0,0.78)"/><path d="M6.5,31l-1,2Z" fill="rgba(0,0,0,0.78)"/><path d="M19.5,31l-1,2Z" fill="rgba(0,0,0,0.78)"/><path d="M80.5,31l1,2Z" fill="rgba(0,0,0,0.78)"/><path d="M93.5,31l1,2Z" fill="rgba(0,0,0,0.78)"/><path d="M11.5,32l-1,2Z" fill="rgba(0,0,0,0.78)"/><path d="M24.5,32l-1,2Z" fill="rgba(0,0,0,0.78)"/><path d="M75.5,32l1,2Z" fill="rgba(0,0,0,0.78)"/><path d="M88.5,32l1,2Z" fill="rgba(0,0,0,0.78)"/><path d="M3.5,33l-1,2Z" fill="rgba(0,0,0,0.78)"/><path d="M96.5,33l1,2Z" fill="rgba(0,0,0,0.78)"/><path d="M8.5,34l-1,2Z" fill="rgba(0,0,0,0.78)"/><path d="M21.5,34l-1,2Z" fill="rgba(0,0,0,0.78)"/><path d="M78.5,34l1,2Z" fill="rgba(0,0,0,0.78)"/><path d="M91.5,34l1,2Z" fill="rgba(0,0,0,0.78)"/><path d="M9.5,38l-1,2Z" fill="rgba(0,0,0,0.78)"/><path d="M90.5,38l1,2Z" fill="rgba(0,0,0,0.78)"/><path d="M8.5,43l-1,2Z" fill="rgba(0,0,0,0.78)"/><path d="M91.5,43l1,2Z" fill="rgba(0,0,0,0.78)"/><path d="M39.5,51l-4,5Z" fill="rgba(0,0,0,0.78)"/><path d="M60.5,51l4,5Z" fill="rgba(0,0,0,0.78)"/><path d="M41.5,54l-3,4Z" fill="rgba(0,0,0,0.78)"/><path d="M58.5,54l3,4Z" fill="rgba(0,0,0,0.78)"/><path d="M35.5,92l-1,2Z" fill="rgba(0,0,0,0.78)"/><path d="M89.5,92l-1,2Z" fill="rgba(0,0,0,0.78)"/><path d="M49.5,2,98,35.5v9L96.5,46,90,43V91.5L87.5,94h-22L64,92.5v-31L58.5,54q-4-3.5-13-2L38,57.5l-2,4v30L33.5,94h-22L10,92.5v-49L8.5,43q-.5,3.5-5,3L2,44.5v-9ZM50,6,6,37l1,4L50,11,94,41V37Zm0,9L14,39V90H32V65l3-8q4-7,14-9a20.98,20.98,0,0,1,11,3q6,4,8,14V90H86V39Z" fill="#fff"/><path d="M0,0H100V100H0ZM49,2,2,35V46l2,1,5-3,1,1V94H36V66l3-8,3-3,8-3,9,3,2,3,3,8V94H90V44l7,3,1-1V35L54,3Z" fill="rgba(0,0,0,0)"/><path d="M49.5,7,94,37.5,93.5,40l-44-30L6.5,40,6,37.5Z" fill="rgba(0,0,0,0)"/><path d="M49.5,16,86,40V90H68V60.5L59.5,50q-4.7-3.8-15-2L34,56.5l-2,4V90H14V40Z" fill="rgba(0,0,0,0)"/></svg>