<svg xmlns="http://www.w3.org/2000/svg" width="90" height="90" viewBox="0 0 90 90"><g fill="rgba(0,0,0,0)" stroke="rgba(0,0,0,0)" stroke-width="1"><rect width="90" height="90" stroke="none"/><rect x="0.5" y="0.5" width="89" height="89" fill="none"/></g><path d="M32.5,10l-1,2Z" fill="rgba(0,0,0,0.14)"/><path d="M23.5,37l-1,2Z" fill="rgba(0,0,0,0.14)"/><path d="M66.5,37l1,2Z" fill="rgba(0,0,0,0.14)"/><path d="M41.5,49l-1,2Z" fill="rgba(0,0,0,0.14)"/><path d="M48.5,49l1,2Z" fill="rgba(0,0,0,0.14)"/><path d="M40.5,57l1,2Z" fill="rgba(0,0,0,0.14)"/><path d="M49.5,57l-1,2Z" fill="rgba(0,0,0,0.14)"/><path d="M22.5,69l1,2Z" fill="rgba(0,0,0,0.14)"/><path d="M67.5,69l-1,2Z" fill="rgba(0,0,0,0.14)"/><path d="M28.5,75l1,2Z" fill="rgba(0,0,0,0.14)"/><path d="M61.5,75l-1,2Z" fill="rgba(0,0,0,0.14)"/><path d="M0,0H90V90H0ZM40,6l-7,4-6,9V34q-7,4-9,14-2,15,4,22,6,8,17,11,15,2,22-4A30.31,30.31,0,0,0,72,61V48q-2-10-9-14V19l-2-4Q56,4,40,6Z" fill="rgba(0,0,0,0)"/><path d="M44.5,12q7.5.5,10.5,5.5,2.8,4.6,2,11.5-6-3.6-18.5-2L33,29l1-9.5L38.5,14Z" fill="rgba(0,0,0,0)"/><path d="M44.5,48,50,51.5l1,2-3,5L47,65H43V63.5l-1-5-3-5L42.5,49Z" fill="rgba(0,0,0,0)"/><path d="M42.5,27l5.5.5-5.5.5Z" fill="#f1c40f"/><path d="M41.5,48l-2,3Z" fill="rgba(0,0,0,0.95)"/><path d="M48.5,48l2,3Z" fill="rgba(0,0,0,0.95)"/><path d="M71.5,51l.5,5.5H71Z" fill="#f1c40f"/><path d="M44.5,6l8,2L60,14.5l3,9v11a26.983,26.983,0,0,1,8,13v13A28.474,28.474,0,0,1,61.5,75l-7,4-10,2-13-4L24,70.5l-4-7-2-10,2-9,7-10,1-16L35.5,9ZM41,12l-2,1-6,7V30l6-2q12-2,18,2V20l-1-2Q53,10,41,12Zm1,36-3,3q-1,5,1,7-1,2,2,1-1,5,2,7,3,1,4-1-2-7,2-6,2-2,1-8Q49,46,42,48Z" fill="#f1c40f"/><path d="M46.5,6l2.5.5L46.5,7Z" fill="#f1c40f"/><path d="M34.5,9l-1,2Z" fill="rgba(0,0,0,0.66)"/><path d="M55.5,9l4,5Z" fill="rgba(0,0,0,0.66)"/><path d="M31.5,12l-1,2Z" fill="rgba(0,0,0,0.66)"/><path d="M37.5,14l-2,3Z" fill="rgba(0,0,0,0.66)"/><path d="M52.5,14l2,3Z" fill="rgba(0,0,0,0.66)"/><path d="M39.5,27l2.5.5-2.5.5Z" fill="#f1c40f"/><path d="M48.5,27l2.5.5-2.5.5Z" fill="#f1c40f"/><path d="M26.5,34l-2,3Z" fill="rgba(0,0,0,0.66)"/><path d="M63.5,34l2,3Z" fill="rgba(0,0,0,0.66)"/><path d="M18.5,48l.5,2.5H18Z" fill="#f1c40f"/><path d="M71.5,48l.5,2.5H71Z" fill="#f1c40f"/><path d="M18.5,57l.5,2.5H18Z" fill="#f1c40f"/><path d="M71.5,57l.5,2.5H71Z" fill="#f1c40f"/><path d="M42.5,64l1,2Z" fill="rgba(0,0,0,0.66)"/><path d="M47.5,64l-1,2Z" fill="rgba(0,0,0,0.66)"/><path d="M24.5,71l3,4Z" fill="rgba(0,0,0,0.66)"/><path d="M65.5,71l-3,4Z" fill="rgba(0,0,0,0.66)"/><path d="M39.5,80l2.5.5-2.5.5Z" fill="#f1c40f"/><path d="M48.5,80l2.5.5-2.5.5Z" fill="#f1c40f"/></svg>