<svg xmlns="http://www.w3.org/2000/svg" width="90" height="90" viewBox="0 0 90 90"><g fill="rgba(0,0,0,0)" stroke="rgba(0,0,0,0)" stroke-width="1"><rect width="90" height="90" stroke="none"/><rect x="0.5" y="0.5" width="89" height="89" fill="none"/></g><path d="M56.5,20l1,2Z" fill="rgba(0,0,0,0.13)"/><path d="M61.5,20l-1,2L59,21.5Z" fill="#f1c40f"/><path d="M60.5,31l1,2Z" fill="rgba(0,0,0,0.13)"/><path d="M23.5,37l-1,2Z" fill="rgba(0,0,0,0.13)"/><path d="M66.5,37l1,2Z" fill="rgba(0,0,0,0.13)"/><path d="M41.5,49l-1,2Z" fill="rgba(0,0,0,0.13)"/><path d="M48.5,49l1,2Z" fill="rgba(0,0,0,0.13)"/><path d="M40.5,57l1,2Z" fill="rgba(0,0,0,0.13)"/><path d="M49.5,57l-1,2Z" fill="rgba(0,0,0,0.13)"/><path d="M22.5,69l1,2Z" fill="rgba(0,0,0,0.13)"/><path d="M67.5,69l-1,2Z" fill="rgba(0,0,0,0.13)"/><path d="M28.5,75l1,2Z" fill="rgba(0,0,0,0.13)"/><path d="M61.5,75l-1,2Z" fill="rgba(0,0,0,0.13)"/><path d="M0,0H90V90H0ZM41,6,36,8,27,19V34q-7,4-9,14-2,15,4,22,6,8,17,11,15,2,22-4A30.31,30.31,0,0,0,72,61q2-15-4-22A28.675,28.675,0,0,0,52,27q-13-2-19,2-1-7,2-11,3-5,10-6l7,2,6,8q3,1,4-1l-1-6Q56,5,41,6Z" fill="rgba(0,0,0,0)"/><path d="M44.5,48,50,51.5l1,2-3,5L47,65H43V63.5l-1-5-3-5L42.5,49Z" fill="rgba(0,0,0,0)"/><path d="M44.5,6l2.5.5L44.5,7Z" fill="#f1c40f"/><path d="M56.5,19l1,2Z" fill="rgba(0,0,0,0.94)"/><path d="M41.5,48l-2,3Z" fill="rgba(0,0,0,0.94)"/><path d="M40.5,7h10L60,14.5l1,5L58.5,21l-7-8q-3.5-2.5-11-1L34,17.5l-1,2V30l12.5-3,13,4L66,37.5l4,7,2,10-4,13L61.5,75l-7,4-10,2-13-4L24,70.5l-4-7-2-10,2-9,7-10,1-16L34.5,10ZM42,48l-3,3q-1,5,1,7-1,2,2,1-1,5,2,7,3,1,4-1-2-7,2-6l1-2q1-6-1-8T42,48Z" fill="#f1c40f"/><path d="M41.5,6l2.5.5L41.5,7Z" fill="#f1c40f"/><path d="M34.5,9l-4,5Z" fill="rgba(0,0,0,0.65)"/><path d="M55.5,9l1,2Z" fill="rgba(0,0,0,0.65)"/><path d="M58.5,12l1,2Z" fill="rgba(0,0,0,0.65)"/><path d="M37.5,14l-2,3Z" fill="rgba(0,0,0,0.65)"/><path d="M52.5,14l2,3Z" fill="rgba(0,0,0,0.65)"/><path d="M39.5,27l2.5.5-2.5.5Z" fill="#f1c40f"/><path d="M48.5,27l2.5.5-2.5.5Z" fill="#f1c40f"/><path d="M62.5,33l3,4Z" fill="rgba(0,0,0,0.65)"/><path d="M26.5,34l-2,3Z" fill="rgba(0,0,0,0.65)"/><path d="M18.5,48l.5,2.5H18Z" fill="#f1c40f"/><path d="M71.5,48l.5,2.5H71Z" fill="#f1c40f"/><path d="M18.5,57l.5,2.5H18Z" fill="#f1c40f"/><path d="M71.5,57l.5,2.5H71Z" fill="#f1c40f"/><path d="M42.5,64l1,2Z" fill="rgba(0,0,0,0.65)"/><path d="M47.5,64l-1,2Z" fill="rgba(0,0,0,0.65)"/><path d="M24.5,71l3,4Z" fill="rgba(0,0,0,0.65)"/><path d="M65.5,71l-3,4Z" fill="rgba(0,0,0,0.65)"/><path d="M39.5,80l2.5.5-2.5.5Z" fill="#f1c40f"/><path d="M48.5,80l2.5.5-2.5.5Z" fill="#f1c40f"/></svg>