<svg xmlns="http://www.w3.org/2000/svg" width="100" height="100" viewBox="0 0 100 100"><g fill="rgba(0,0,0,0)" stroke="rgba(0,0,0,0)" stroke-width="1"><rect width="100" height="100" stroke="none"/><rect x="0.5" y="0.5" width="99" height="99" fill="none"/></g><path d="M75.5,4l1.5.5L74.5,6Z" fill="#fff"/><path d="M73.5,7l-1,2Z" fill="rgba(0,0,0,0.19)"/><path d="M83.5,7l1,2Z" fill="rgba(0,0,0,0.19)"/><path d="M69.5,10l2.5.5-2.5.5Z" fill="#fff"/><path d="M47.5,15l2.5.5-2.5.5Z" fill="#fff"/><path d="M56.5,15l-1,2Z" fill="rgba(0,0,0,0.19)"/><path d="M65.5,23l-2,3Z" fill="rgba(0,0,0,0.19)"/><path d="M74.5,23l2,3Z" fill="rgba(0,0,0,0.19)"/><path d="M44.5,24l1,2Z" fill="rgba(0,0,0,0.19)"/><path d="M94.5,25l-1,2Z" fill="rgba(0,0,0,0.19)"/><path d="M89.5,29l.5,2.5H89Z" fill="#fff"/><path d="M63.5,34l2,3Z" fill="rgba(0,0,0,0.19)"/><path d="M76.5,34l-2,3Z" fill="rgba(0,0,0,0.19)"/><path d="M94.5,34l1,2Z" fill="rgba(0,0,0,0.19)"/><path d="M26.5,41l.5,2.5H26Z" fill="#fff"/><path d="M37.5,41l.5,2.5H37Z" fill="#fff"/><path d="M15.5,44l-6,7Z" fill="rgba(0,0,0,0.19)"/><path d="M47.5,44,54,49.5,48.5,45l-3,2Z" fill="#fff"/><path d="M90.5,44l2.5.5-2.5.5Z" fill="#fff"/><path d="M17.5,45l1,2Z" fill="rgba(0,0,0,0.19)"/><path d="M20.5,47l1,2Z" fill="rgba(0,0,0,0.19)"/><path d="M25.5,47l-1,2Z" fill="rgba(0,0,0,0.19)"/><path d="M38.5,47l1,2Z" fill="rgba(0,0,0,0.19)"/><path d="M10.5,54l1,2Z" fill="rgba(0,0,0,0.19)"/><path d="M74.5,55l1,2Z" fill="rgba(0,0,0,0.19)"/><path d="M12.5,60l-1,2Z" fill="rgba(0,0,0,0.19)"/><path d="M27.5,61l-2,3Z" fill="rgba(0,0,0,0.19)"/><path d="M36.5,61l2,3Z" fill="rgba(0,0,0,0.19)"/><path d="M56.5,62l2.5.5-2.5.5Z" fill="#fff"/><path d="M25.5,72l2,3Z" fill="rgba(0,0,0,0.19)"/><path d="M38.5,72l-2,3Z" fill="rgba(0,0,0,0.19)"/><path d="M52.5,74l-1,2Z" fill="rgba(0,0,0,0.19)"/><path d="M52.5,80l1,2Z" fill="rgba(0,0,0,0.19)"/><path d="M10.5,81l-1,2Z" fill="rgba(0,0,0,0.19)"/><path d="M8.5,84l6,7Z" fill="rgba(0,0,0,0.19)"/><path d="M54.5,85l-6,7Z" fill="rgba(0,0,0,0.19)"/><path d="M24.5,87,26,89.5H25Z" fill="#fff"/><path d="M45.5,89l1,2Z" fill="rgba(0,0,0,0.19)"/><path d="M37.5,91l.5,2.5H37Z" fill="#fff"/><path d="M0,0H100V100H0ZM63,4,55,7l2,7-2,3-8-2L44,25l5,2q2,1,1,5l-6,4,3,9-6,4q-4-1-3-7l-1-2H28q-3,1-2,7l-2,2-7-4-1-1L9,51l4,9q-1,3-7,2L4,64v9q1,2,7,1l2,4L9,84,8,85l7,6,9-4,2,4v5H37l1-8,3-1,7,4,1,1,6-6-4-9q1-4,8-3l1-1V64q-2-4-8-2l-1-2,3-7,11,3,2-4,4-2,5,7,8-4-1-5q-1-4,2-5l5.945,1.486L93,45l3-9-4-3q-3-1-2-5l6-3-3-9-5,1q-4,1-5-1l2-7L76,4,72,9v1H68L66,6Z" fill="rgba(0,0,0,0)"/><path d="M69.5,22q5.6.5,7.5,4.5l1,4L73.5,37l-4,1L63,33.5l-1-4L66.5,23Z" fill="rgba(0,0,0,0)"/><path d="M53.5,43,56,44.5q1.3,5.3-1.5,6.5L49,44.5Z" fill="rgba(0,0,0,0)"/><path d="M31.5,60q5.6.5,7.5,4.5l1,4L35.5,75l-4,1L25,71.5l-1-4L28.5,61Z" fill="rgba(0,0,0,0)"/><path d="M65.5,6l1,2Z" fill="rgba(0,0,0,0.81)"/><path d="M67.5,9l1,2Z" fill="rgba(0,0,0,0.81)"/><path d="M82.5,14l2,3,2.5.5-2.5.5Q80.9,16.9,82.5,14Z" fill="#fff"/><path d="M49.5,27l1,2Z" fill="rgba(0,0,0,0.81)"/><path d="M90.5,27l-1,2Z" fill="rgba(0,0,0,0.81)"/><path d="M50.5,31l-1,2Z" fill="rgba(0,0,0,0.81)"/><path d="M90.5,32l1,2Z" fill="rgba(0,0,0,0.81)"/><path d="M54.5,42l2,3Z" fill="rgba(0,0,0,0.81)"/><path d="M84.5,42l1.5.5-3,2L82.5,47,82,44.5Z" fill="#fff"/><path d="M51.5,48,57,52.5l-4,1,1-2Z" fill="#fff"/><path d="M68.5,49l3.5.5L67.5,51Z" fill="#fff"/><path d="M72.5,51l1,2Z" fill="rgba(0,0,0,0.81)"/><path d="M9.5,52l1,2Z" fill="rgba(0,0,0,0.81)"/><path d="M52.5,55l-1,2Z" fill="rgba(0,0,0,0.81)"/><path d="M7.5,62l2.5.5L7.5,63Z" fill="#fff"/><path d="M7.5,73l2.5.5L7.5,74Z" fill="#fff"/><path d="M54.5,73l2.5.5-2.5.5Z" fill="#fff"/><path d="M50.5,76,52,79.5l-2-1Z" fill="#fff"/><path d="M12.5,79l-1,2Z" fill="rgba(0,0,0,0.81)"/><path d="M53.5,82l1,2Z" fill="rgba(0,0,0,0.81)"/><path d="M20.5,87l-1,2Z" fill="rgba(0,0,0,0.81)"/><path d="M17.5,89l-1,2Z" fill="rgba(0,0,0,0.81)"/><path d="M26.5,91l.5,2.5H26Z" fill="#fff"/><path d="M91.5,16l1,2Z" fill="rgba(0,0,0,1)"/><path d="M64.5,23l-1,2Z" fill="rgba(0,0,0,1)"/><path d="M75.5,23l1,2Z" fill="rgba(0,0,0,1)"/><path d="M63.5,35l1,2Z" fill="rgba(0,0,0,1)"/><path d="M76.5,35l-1,2Z" fill="rgba(0,0,0,1)"/><path d="M15.5,45l-6,7Z" fill="rgba(0,0,0,1)"/><path d="M48.5,45l2,3Z" fill="rgba(0,0,0,1)"/><path d="M20.5,48l1,2Z" fill="rgba(0,0,0,1)"/><path d="M26.5,61l-1,2Z" fill="rgba(0,0,0,1)"/><path d="M37.5,61l1,2Z" fill="rgba(0,0,0,1)"/><path d="M25.5,73l1,2Z" fill="rgba(0,0,0,1)"/><path d="M38.5,73l-1,2Z" fill="rgba(0,0,0,1)"/><path d="M9.5,84l6,7Z" fill="rgba(0,0,0,1)"/><path d="M54.5,84l-6,7Z" fill="rgba(0,0,0,1)"/><path d="M42.5,86l1,2Z" fill="rgba(0,0,0,1)"/><path d="M63.5,5q2.3-.7,1.5,1.5L68.5,11q4.8.8,5.5-2.5L76.5,5,84,8.5l-2,7q.8,3.3,5.5,2.5l4-1L95,25l-6,3.5q-1.9,5.4,1.5,4.5L95,36.5,92,44l-7.5-2q-3.2.8-2.5,5.5L83,53l-7.5,2-4-6q-4.7-.7-5.5,2.5L63.5,55,56,51.5l1-7q-1.7-4.2-3.5-1.5l-5,1L45,35l6-3.5q.8-4.7-2.5-5.5L45,23.5,48,16l7.5,2L58,14.5l-2-6ZM67,22l-2,1-3,4,1,9,4,2,9-1,2-3-1-9Q74,21,67,22Z" fill="#fff"/><path d="M28.5,40q6.7-1.7,8.5,1.5-.6,5.4,1,7.5l3.5,1,7-4L54,52.5l-4,5v2L51,62q2.1,1.6,7.5,1L60,64.5q1.8,6.8-1.5,8.5-5.4-.6-7.5,1l-1,4.5,4,6L47.5,90l-5-4h-2L37,88.5q.6,5.4-1,7.5H27V90.5L26,87l-4.5-1-6,4L10,83.5l4-5v-2L13,74q-2.1-1.6-7.5-1L4,71.5Q2.3,64.8,5.5,63L13,62l1-4.5-4-6L16.5,46l5,4h2L26,49q1.6-2.1,1-7.5ZM29,60l-2,1-3,4,1,9,4,2,9-1,2-3-1-9Q36,59,29,60Z" fill="#fff"/></svg>