<svg xmlns="http://www.w3.org/2000/svg" width="100" height="100" viewBox="0 0 100 100"><g fill="rgba(0,0,0,0)" stroke="rgba(0,0,0,0)" stroke-width="1"><rect width="100" height="100" stroke="none"/><rect x="0.5" y="0.5" width="99" height="99" fill="none"/></g><path d="M60.5,8l21,22Z" fill="rgba(0,0,0,0.96)"/><path d="M69.5,46l-1,2Z" fill="rgba(0,0,0,0.96)"/><path d="M74.5,46l1,2Z" fill="rgba(0,0,0,0.96)"/><path d="M37.5,48l-1,2Z" fill="rgba(0,0,0,0.96)"/><path d="M42.5,48l1,2Z" fill="rgba(0,0,0,0.96)"/><path d="M75.5,52l-1,2Z" fill="rgba(0,0,0,0.96)"/><path d="M44.5,53l2,3Z" fill="rgba(0,0,0,0.96)"/><path d="M41.5,57l2,3Z" fill="rgba(0,0,0,0.96)"/><path d="M25.5,60l-1,2Z" fill="rgba(0,0,0,0.96)"/><path d="M98.5,60l1,2Z" fill="rgba(0,0,0,0.96)"/><path d="M52.5,62l2,3Z" fill="rgba(0,0,0,0.96)"/><path d="M24.5,66l1,2Z" fill="rgba(0,0,0,0.96)"/><path d="M31.5,66l-1,2Z" fill="rgba(0,0,0,0.96)"/><path d="M49.5,66l2,3Z" fill="rgba(0,0,0,0.96)"/><path d="M52.5,72l1,2Z" fill="rgba(0,0,0,0.96)"/><path d="M59.5,72l-1,2Z" fill="rgba(0,0,0,0.96)"/><path d="M90.5,84,92,86.5l-2,1,1-2Z" fill="#fff"/><path d="M95.5,93l-2,3Z" fill="rgba(0,0,0,0.96)"/><path d="M14,4H60.5L64,7.5Q63.3,9.8,65.5,9L86,30.5V60H97.5l2.5,2.5v27l-2,6L95.5,98l-6,2h-21l-4-1-3-3H14ZM61,8,60,30H82Zm9,38q-3,1-2,6L56,66,44,53V50q-1-3-6-2-3,1-2,5l-7,7H26q-3,1-2,7,1,2,7,1,2-1,1-4l9-8L52,70v3q1,2,7,1,2-1,1-5l8-10,5-5h2q2-1,1-6Q75,45,70,46Zm2,18V84H90l1,3-5,3q-1,5,2,6,7,2,8-2V64ZM66,88q-3,1-2,7l2,1H84l-1-1q-1-5,1-6Z" fill="#fff"/><path d="M61.5,4l24,25Z" fill="rgba(0,0,0,0.17)"/><path d="M60.5,9l20,21Z" fill="rgba(0,0,0,0.17)"/><path d="M68.5,50l.5,1.5-2,1Z" fill="#fff"/><path d="M44.5,54l3,4Z" fill="rgba(0,0,0,0.17)"/><path d="M65.5,55l-2,3Z" fill="rgba(0,0,0,0.17)"/><path d="M41.5,56l3,4Z" fill="rgba(0,0,0,0.17)"/><path d="M67.5,58l-1,2Z" fill="rgba(0,0,0,0.17)"/><path d="M61.5,60l-2,3Z" fill="rgba(0,0,0,0.17)"/><path d="M51.5,62l3,4Z" fill="rgba(0,0,0,0.17)"/><path d="M64.5,62l-2,3Z" fill="rgba(0,0,0,0.17)"/><path d="M48.5,64l3,4Z" fill="rgba(0,0,0,0.17)"/><path d="M60.5,67,60,68.5,59.5,70,59,68.5Z" fill="#fff"/><path d="M94.5,93l-1,2Z" fill="rgba(0,0,0,0.17)"/><path d="M0,0H100V60H86V28.5L61.5,4H14V96H60.5l3,4H0Z" fill="rgba(0,0,0,0)"/><path d="M60.5,10l19,20H60Z" fill="rgba(0,0,0,0)"/><path d="M71.5,46,75,47l1,3.5L75,53l-5,1L59,69.5v2q.8,2.3-1.5,1.5l-2,1L53,73l-1-2.5v-2L41.5,56h-3L32,62.5,31,67l-3.5,1L25,67l-1-3.5L25,61q7.9-.6,11-7.5L37,49l3.5-1L43,49l1,2.5v2L54.5,66q4.4,1.5,3.5-1.5l11-14v-2q-.7-2.2,1.5-1.5Z" fill="rgba(0,0,0,0)"/><path d="M72,64H96V90.5L92.5,95l-3,1L87,95l-1-3.5L87,89l5-1-.5-4H72Z" fill="rgba(0,0,0,0)"/><path d="M67.5,88l15.5.5q-2.2,1.3-1,6l.5,1.5h-15L65,95l-1-3.5L65,89Z" fill="rgba(0,0,0,0)"/><path d="M99.5,94l.5,6-6-.5,5-4Z" fill="rgba(0,0,0,0)"/><path d="M35.5,53l-6,7Z" fill="rgba(0,0,0,0.71)"/><path d="M66.5,53l-1,2Z" fill="rgba(0,0,0,0.71)"/><path d="M70.5,55l-2,3Z" fill="rgba(0,0,0,0.71)"/><path d="M38.5,56l-6,7Z" fill="rgba(0,0,0,0.71)"/><path d="M48.5,58l3,4Z" fill="rgba(0,0,0,0.71)"/><path d="M62.5,58l-1,2Z" fill="rgba(0,0,0,0.71)"/><path d="M44.5,60l3,4Z" fill="rgba(0,0,0,0.71)"/><path d="M66.5,60l-1,2Z" fill="rgba(0,0,0,0.71)"/><path d="M58.5,63l-1,2Z" fill="rgba(0,0,0,0.71)"/><path d="M62.5,65l-1,2Z" fill="rgba(0,0,0,0.71)"/><path d="M65.5,88l-1,2Z" fill="rgba(0,0,0,0.71)"/><path d="M87.5,88l-1,2Z" fill="rgba(0,0,0,0.71)"/><path d="M64.5,94l1,2Z" fill="rgba(0,0,0,0.71)"/><path d="M86.5,94l1,2Z" fill="rgba(0,0,0,0.71)"/><path d="M61.5,96l2,3Z" fill="rgba(0,0,0,0.71)"/><path d="M97.5,96l-1,2Z" fill="rgba(0,0,0,0.71)"/></svg>