<svg xmlns="http://www.w3.org/2000/svg" width="100" height="100" viewBox="0 0 100 100"><g fill="rgba(0,0,0,0)" stroke="rgba(0,0,0,0)" stroke-width="1"><rect width="100" height="100" stroke="none"/><rect x="0.5" y="0.5" width="99" height="99" fill="none"/></g><path d="M2,12H22V32H2Zm8,8q-2,6,4,4Q16,18,10,20Z" fill="#fff"/><path d="M26,18H97.5l.5.5V26H26.5l-.5-.5Z" fill="#fff"/><path d="M2,40H22V60H2Zm4,4V56H18V44Z" fill="#fff"/><path d="M26,46H97.5l.5.5V54H26.5l-.5-.5Z" fill="#fff"/><path d="M2,68H22V88H2Zm8,8q-2,6,4,4Q16,74,10,76Z" fill="#fff"/><path d="M26,74H97.5l.5.5V82H26.5l-.5-.5Z" fill="#fff"/><path d="M0,0H100V100H0ZM2,12V32H22V12Zm24,6v8H98V18ZM2,40V60H22V40Zm24,6v8H98V46ZM2,68V88H22V68Zm24,6v8H98V74Z" fill="rgba(0,0,0,0)"/><path d="M10,20q6-2,4,4Q8,26,10,20Z" fill="rgba(0,0,0,0)"/><path d="M6,44H18V56H6Z" fill="rgba(0,0,0,0)"/><path d="M10,76q6-2,4,4Q8,82,10,76Z" fill="rgba(0,0,0,0)"/></svg>