<svg xmlns="http://www.w3.org/2000/svg" width="100" height="100" viewBox="0 0 100 100"><g fill="rgba(0,0,0,0)" stroke="rgba(0,0,0,0)" stroke-width="1"><rect width="100" height="100" stroke="none"/><rect x="0.5" y="0.5" width="99" height="99" fill="none"/></g><path d="M0,0H100V100H0ZM32,4V29h7l8,4q5,3,6,11,2,5-1,7-1,5,1,7l-1,5L46,74l16,7,6,8H96V25L76,4ZM29,32l-4,2-6,8V56l-1,1a29.67,29.67,0,0,0,8,14v3l6,2q6,1,9-2l8-13q1-5-1-6l1-3q2-9-1-12L38,32ZM44,76l-8,3-1,3,3,10q-1,4,1,4H64q1-6-2-9l-3-4ZM24,77,7,85Q4,88,4,95l2,1H30l1-8,2-3-1-6Z" fill="rgba(0,0,0,0)"/><path d="M74.5,10l15,16H74Z" fill="rgba(0,0,0,0)"/><path d="M86.5,20l5,6Z" fill="rgba(0,0,0,0.89)"/><path d="M30.5,32l2.5.5-2.5.5Z" fill="#fff"/><path d="M23.5,35l-2,3Z" fill="rgba(0,0,0,0.89)"/><path d="M45.5,37l1,2Z" fill="rgba(0,0,0,0.89)"/><path d="M48.5,47l.5,2.5H48Z" fill="#fff"/><path d="M47.5,61l-1,2Z" fill="rgba(0,0,0,0.89)"/><path d="M24.5,68l1,2Z" fill="rgba(0,0,0,0.89)"/><path d="M43.5,68,42,70.5,41.5,73,41,70.5Z" fill="#fff"/><path d="M32.5,75l3.5.5-3.5.5Z" fill="#fff"/><path d="M61.5,80l3,4Z" fill="rgba(0,0,0,0.89)"/><path d="M10.5,83l-4,5Z" fill="rgba(0,0,0,0.89)"/><path d="M4.5,92,6,95.5l-2-1Z" fill="#fff"/><path d="M38.5,92l.5,3.5H38Z" fill="#fff"/><path d="M32,4H74.5L96,25.5V88H67l-5.5-8L47,74V71.5l6-9v-15l1-2-2-8L46.5,32l-9-4H32ZM75,9,74,26H92Z" fill="#fff"/><path d="M33.5,32l10,4L47,39.5l2,7-2,7q2.5,1.5,1,7L39.5,74l-9,1L26,73V69.5l-6-8-1-6q2.3-1.2,1-6l-1-5q1.1-7.4,6.5-10.5Z" fill="#fff"/><path d="M24.5,77,32,80q.8,5.5-2,8.5V96H6.5L5,94.5q0-9,6.5-11.5Z" fill="#fff"/><path d="M43.5,77l12,5L61,86.5,64,95l-2.5,1H39L36,80Z" fill="#fff"/><path d="M75.5,4l20,21Z" fill="rgba(0,0,0,0.38)"/><path d="M74.5,9l16,17Z" fill="rgba(0,0,0,0.38)"/><path d="M32.5,28l4.5.5-4.5.5Z" fill="#fff"/><path d="M39.5,33l1,2Z" fill="rgba(0,0,0,0.38)"/><path d="M47.5,33l3,4Z" fill="rgba(0,0,0,0.38)"/><path d="M52.5,50l.5,2.5H52Z" fill="#fff"/><path d="M19.5,51l.5,2.5H19Z" fill="#fff"/><path d="M20.5,62l1,2Z" fill="rgba(0,0,0,0.38)"/><path d="M47.5,70l-1,2Z" fill="rgba(0,0,0,0.38)"/><path d="M58.5,83l3,4Z" fill="rgba(0,0,0,0.38)"/><path d="M66.5,87l1,1,28.5.5L67.5,89Z" fill="#fff"/><path d="M30.5,89l.5,2.5H30Z" fill="#fff"/></svg>