<svg xmlns="http://www.w3.org/2000/svg" width="100" height="100" viewBox="0 0 100 100"><g fill="rgba(0,0,0,0)" stroke="rgba(0,0,0,0)" stroke-width="1"><rect width="100" height="100" stroke="none"/><rect x="0.5" y="0.5" width="99" height="99" fill="none"/></g><path d="M0,0H100V73q-5.5,1.3-7-2.5l4-5L90.5,59l-2,2-3,2q-3.7-1.5-2.5-7H74.5L73,57.5Q74,62,71.5,63l-6-4L59,65.5l2,2,2,3q-1.5,3.8-7,2.5v8.5L57.5,83q6.3-2.2,4.5,3.5l-3,4L65.5,97l2-2,4-2L74,99.5,0,100ZM44,6l-8,4L30,20V34l1,1-1,3v7l8,13v7l-3,3q-12,3-19,9l-6,9q-1,6,1,6H56l-3-6q1-5-1-6,0-10,4-15l1-2-6,3-7-3q-3-2-2-7l-4-6V46l-3-2-1-2,2-3L34,28l2-11,5-5,7-2,8,1,1,2q-1,3,4,1l3,4,2,7L65,36l-1,1q-1,3,2,2v4l-3,1a16.366,16.366,0,0,1-5,12l1,5,5-5q1-8,6-11,2-7-1-8l1-2q2-15-3-21L56,6Z" fill="rgba(0,0,0,0)"/><path d="M78.5,60q-.6,4.6,2,6l6,2,4-3L90,66.5l-2,5L90,76l6,1.5L90,79l-2,7.5L90.5,90l-6-2L79,91.5q1.7,5.8-2,4.5V90H74.5l-5-2-4,2L67,87.5l1-3L66,79q-4.6,1.3-6-1.5,4.6.6,6-2l2-6L65,65l6.5,3L77,66Q75.8,61.4,78.5,60ZM75,70l-5,5,1,8,5,3q8,1,10-4l-1-8Q83,69,75,70Z" fill="rgba(0,0,0,0)"/><path d="M41,67l5,2.5L43,74l-3-1.5-1-2Z" fill="rgba(0,0,0,0)"/><path d="M33.5,73,39,77.5,40.5,80q3.8.8,4.5-1.5L47.5,75l.5,2.5-2,2L44,88H15.5L15,85.5,20.5,79Z" fill="rgba(0,0,0,0)"/><path d="M77.5,74,81,75l1,3.5L81,81l-3.5,1L75,81l-1-3.5L75,75Z" fill="rgba(0,0,0,0)"/><path d="M99.5,82l.5,18H83.5q-1,0-.5-4.5,2.2-4.7,4.5-.5l3,2L97,90.5l-1-1-3-4L94,83Z" fill="rgba(0,0,0,0)"/><path d="M45.5,6l2.5.5L45.5,7Z" fill="#fff"/><path d="M51.5,6l2.5.5L51.5,7Z" fill="#fff"/><path d="M58.5,8l1,2Z" fill="rgba(0,0,0,0.81)"/><path d="M56.5,11l1,2Z" fill="rgba(0,0,0,0.81)"/><path d="M66.5,14l1,2Z" fill="rgba(0,0,0,0.81)"/><path d="M30.5,21l.5,3.5H30Z" fill="#fff"/><path d="M69.5,21l.5,2.5H69Z" fill="#fff"/><path d="M30.5,26l.5,4.5H30Z" fill="#fff"/><path d="M69.5,30l.5,2.5H69Z" fill="#fff"/><path d="M35.5,37l-1,2Z" fill="rgba(0,0,0,0.81)"/><path d="M64.5,37l1,2Z" fill="rgba(0,0,0,0.81)"/><path d="M40.5,54l1,2Z" fill="rgba(0,0,0,0.81)"/><path d="M59.5,54l-1,2Z" fill="rgba(0,0,0,0.81)"/><path d="M62.5,56l-4,5Z" fill="rgba(0,0,0,0.81)"/><path d="M64.5,60l-4,5Z" fill="rgba(0,0,0,0.81)"/><path d="M91.5,60l4,5Z" fill="rgba(0,0,0,0.81)"/><path d="M76.5,63l.5,1.5-2,1Z" fill="#fff"/><path d="M65.5,64l-1,2Z" fill="rgba(0,0,0,0.81)"/><path d="M88.5,65l-1,2Z" fill="rgba(0,0,0,0.81)"/><path d="M41.5,66l1.5.5L40.5,68Z" fill="#fff"/><path d="M45.5,68l1,2Z" fill="rgba(0,0,0,0.81)"/><path d="M73.5,71l-2,3Z" fill="rgba(0,0,0,0.81)"/><path d="M40.5,73l2,1,1.5-.5L41.5,75Z" fill="#fff"/><path d="M47.5,74l-3,4Z" fill="rgba(0,0,0,0.81)"/><path d="M75.5,74l-1,2Z" fill="rgba(0,0,0,0.81)"/><path d="M80.5,74l1,2Z" fill="rgba(0,0,0,0.81)"/><path d="M37.5,75l2,3Z" fill="rgba(0,0,0,0.81)"/><path d="M20.5,78l-1,2Z" fill="rgba(0,0,0,0.81)"/><path d="M91.5,79l1.5.5L90.5,81Z" fill="#fff"/><path d="M74.5,80l1,2Z" fill="rgba(0,0,0,0.81)"/><path d="M81.5,80l-1,2Z" fill="rgba(0,0,0,0.81)"/><path d="M60.5,82,63,83.5,61.5,83Z" fill="#fff"/><path d="M84.5,82l-1,2Z" fill="rgba(0,0,0,0.81)"/><path d="M65.5,88l-1,2Z" fill="rgba(0,0,0,0.81)"/><path d="M90.5,88l1,2Z" fill="rgba(0,0,0,0.81)"/><path d="M68.5,89l-1,2Z" fill="rgba(0,0,0,0.81)"/><path d="M96.5,90l-5,6Z" fill="rgba(0,0,0,0.81)"/><path d="M48.5,6l2.5.5L48.5,7Z" fill="#fff"/><path d="M36.5,10l-2,3Z" fill="rgba(0,0,0,1)"/><path d="M64.5,12l1,2Z" fill="rgba(0,0,0,1)"/><path d="M62.5,14l1,2Z" fill="rgba(0,0,0,1)"/><path d="M66.5,39l.5,2.5H66Z" fill="#fff"/><path d="M32.5,46l1,2Z" fill="rgba(0,0,0,1)"/><path d="M39.5,68l-1,2Z" fill="rgba(0,0,0,1)"/><path d="M38.5,71l1,2Z" fill="rgba(0,0,0,1)"/><path d="M45.5,71l-1,2Z" fill="rgba(0,0,0,1)"/><path d="M35.5,72l1,2Z" fill="rgba(0,0,0,1)"/><path d="M16.5,77l-2,3Z" fill="rgba(0,0,0,1)"/><path d="M94.5,88l1,2Z" fill="rgba(0,0,0,1)"/><path d="M64.5,90,67,91.5l-1.5.5Z" fill="#fff"/><path d="M88.5,90l2,1,1.5-.5L89.5,92Z" fill="#fff"/><path d="M43.5,7h12L67,15.5l2,4,1,9-2,8,2,5-7,14L58.5,60,58,56.5q6-3.1,5-11.5,4.1,1.7,3-2.5l1-3-2-4,2-9q-2.5-1.5-1-7L62.5,14q-5.1-.3-7-4h-12L37,13q-5.1,6.1-3,20.5l1,4-1,1V45q4.9-1.8,3,4.5l5,7q-1.5,6,1.5,7.5l7,3,4-2L54,66.5q-3.9,6.1-2,18L55,92H10.5L10,90.5l3-9L18.5,76,38,67V56.5l-4-9-3-3v-7l1-3-1-1v-14A15.965,15.965,0,0,1,38.5,9ZM42,66q-4,1-4,6l5,3q4-2,4-7Zm-8,6L17,80l-3,6,1,2H45V85l4-7V74l-7,5-5-5Z" fill="#fff"/><path d="M74,56h8v3.5L83,63l2.5,1,5-4L95,64.5v2l-3,4L93,73l7,1v8H95.5L93,83q-.9,5.4,3,7.5L90.5,96l-2-2L83,93l-1,7H74V93.5L72.5,93l-2-1-5,4L60,90.5l1-1q2.6-1.4,2-6-1.6-3-7-1.5V74h3.5L63,73q.9-5.4-3-7.5L65.5,60l2,2,4,2Q75.5,62.3,74,56Zm3,4-1,5-4,2-5-3-3,2,3,5-2,4v1H60v3l5,1,2,5-3,5,2,2,5-3,4,2q2-1,1,4l3,1q2-1,1-4l5-3q4,0,5,3l2-1-3-5,2-6,5-1V76H91l-2-4,2-5q2-2,0-3l-4,3-5-2H80V60Z" fill="#fff"/><path d="M75.5,71Q82,70,84,73.5l1,7L82.5,84l-7,1L72,82.5l-1-7L73.5,72Zm.5,3q-3,1-2,7,1,2,7,1,2-1,1-6Q81,73,76,74Z" fill="#fff"/><path d="M35.5,10l-1,2Z" fill="rgba(0,0,0,0.33)"/><path d="M64.5,11l2,3Z" fill="rgba(0,0,0,0.33)"/><path d="M38.5,13l-1,2Z" fill="rgba(0,0,0,0.33)"/><path d="M61.5,14l2,3Z" fill="rgba(0,0,0,0.33)"/><path d="M34.5,21l.5,2.5H34Z" fill="#fff"/><path d="M65.5,21l.5,2.5H65Z" fill="#fff"/><path d="M34.5,28l.5,3.5H34Z" fill="#fff"/><path d="M65.5,30l.5,2.5H65Z" fill="#fff"/><path d="M30.5,31l.5,2.5H30Z" fill="#fff"/><path d="M35.5,38l-1,2Z" fill="rgba(0,0,0,0.33)"/><path d="M65.5,43l-1,2L63,44.5Z" fill="#fff"/><path d="M35.5,44,38,45.5,37.5,48,37,45Z" fill="#fff"/><path d="M31.5,46l2,3Z" fill="rgba(0,0,0,0.33)"/><path d="M67.5,60l1,2Z" fill="rgba(0,0,0,0.33)"/><path d="M83.5,61l1,2Z" fill="rgba(0,0,0,0.33)"/><path d="M37.5,65l-1,2Z" fill="rgba(0,0,0,0.33)"/><path d="M96.5,65l-1,2Z" fill="rgba(0,0,0,0.33)"/><path d="M68.5,66l1,2Z" fill="rgba(0,0,0,0.33)"/><path d="M40.5,68l-1,4Q36,70,40.5,68Z" fill="#fff"/><path d="M66.5,68l1,2Z" fill="rgba(0,0,0,0.33)"/><path d="M94.5,68l-1,2Z" fill="rgba(0,0,0,0.33)"/><path d="M45.5,70l-2,3Z" fill="rgba(0,0,0,0.33)"/><path d="M62.5,71l-1,2Z" fill="rgba(0,0,0,0.33)"/><path d="M93.5,71l1,2Z" fill="rgba(0,0,0,0.33)"/><path d="M34.5,72l2,3Z" fill="rgba(0,0,0,0.33)"/><path d="M19.5,74l-1,2Z" fill="rgba(0,0,0,0.33)"/><path d="M62.5,76l2.5.5-2.5.5Z" fill="#fff"/><path d="M15.5,77l-2,3Z" fill="rgba(0,0,0,0.33)"/><path d="M39.5,78l1,2Z" fill="rgba(0,0,0,0.33)"/><path d="M44.5,78l-1,2Z" fill="rgba(0,0,0,0.33)"/><path d="M18.5,80l-1,2Z" fill="rgba(0,0,0,0.33)"/><path d="M52.5,80l.5,2.5H52Z" fill="#fff"/><path d="M57.5,82l2.5.5-2.5.5Z" fill="#fff"/><path d="M88.5,86l1,2Z" fill="rgba(0,0,0,0.33)"/><path d="M94.5,87l1,2Z" fill="rgba(0,0,0,0.33)"/><path d="M59.5,90l6,7Z" fill="rgba(0,0,0,0.33)"/><path d="M84.5,93l-1,2Z" fill="rgba(0,0,0,0.33)"/><path d="M73.5,96l.5,2.5H73Z" fill="#fff"/></svg>