<svg xmlns="http://www.w3.org/2000/svg" width="100" height="100" viewBox="0 0 100 100"><g fill="rgba(0,0,0,0)" stroke="rgba(0,0,0,0)" stroke-width="1"><rect width="100" height="100" stroke="none"/><rect x="0.5" y="0.5" width="99" height="99" fill="none"/></g><path d="M0,0H100V100H0ZM21,8,19,9l-3,4V24H14l-2,3,2,1h9l1-2-4-2V14l2-2H79l1,2V87l-1,1H22l-2-1V78H16V88l1,2,4,2H80l2-1,2-3V13l-1-2L80,8ZM34,24l-2,2V51l2,1H71l1-1V26l-1-2ZM16,30v6l-4,2,2,2h9l1-1-1-3H20V30Zm0,12v6l-4,2,2,2h9l1-1-1-3H20V42Zm0,12v6l-4,2,2,2h9l1-1-1-3H20V54Zm0,12v6l-4,2,2,2h9l1-1-1-3H20V66Z" fill="rgba(0,0,0,0)"/><path d="M36,28H68V48H36Zm4,4,1,4H64V32Zm0,8,1,4H64V40Z" fill="rgba(0,0,0,0)"/><path d="M18.5,9l-1,2Z" fill="rgba(0,0,0,0.86)"/><path d="M81.5,9l1,2Z" fill="rgba(0,0,0,0.86)"/><path d="M13.5,24,13,25.5l1,2-2-1Z" fill="rgba(255,255,255,0.86)"/><path d="M22.5,24,24,26.5l-2,1,1-2Z" fill="rgba(255,255,255,0.86)"/><path d="M33.5,24l-1,2Z" fill="rgba(0,0,0,0.86)"/><path d="M70.5,24l1,2Z" fill="rgba(0,0,0,0.86)"/><path d="M13.5,36,13,37.5l1,2-2-1Z" fill="rgba(255,255,255,0.86)"/><path d="M22.5,36,24,38.5l-2,1,1-2Z" fill="rgba(255,255,255,0.86)"/><path d="M13.5,48,13,49.5l1,2-2-1Z" fill="rgba(255,255,255,0.86)"/><path d="M22.5,48,24,50.5l-2,1,1-2Z" fill="rgba(255,255,255,0.86)"/><path d="M32.5,50l1,2Z" fill="rgba(0,0,0,0.86)"/><path d="M71.5,50l-1,2Z" fill="rgba(0,0,0,0.86)"/><path d="M13.5,60,13,61.5l1,2-2-1Z" fill="rgba(255,255,255,0.86)"/><path d="M22.5,60,24,62.5l-2,1,1-2Z" fill="rgba(255,255,255,0.86)"/><path d="M13.5,72,13,73.5l1,2-2-1Z" fill="rgba(255,255,255,0.86)"/><path d="M22.5,72,24,74.5l-2,1,1-2Z" fill="rgba(255,255,255,0.86)"/><path d="M17.5,89l1,2Z" fill="rgba(0,0,0,0.86)"/><path d="M82.5,89l-1,2Z" fill="rgba(0,0,0,0.86)"/><path d="M21.5,8h57L83,11.5l1,2v73L80.5,91l-2,1h-57L17,88.5,16,78h4v9.5l.5.5H80V12H20V23.5l1.5.5L23,26.5q-1.7,3.3-8.5,1.5L13,25.5,16,24V13.5L19.5,9Z" fill="#fff"/><path d="M34.5,24h35L72,26.5v23L69.5,52h-35L32,49.5v-23ZM36,28V48H68V28Z" fill="#fff"/><path d="M16,30h4v5.5l1.5.5L23,38.5q-1.7,3.3-8.5,1.5L13,37.5,16,36Z" fill="#fff"/><path d="M40,32H63.5l.5,4H40.5Z" fill="#fff"/><path d="M40,40H63.5l.5,4H40.5Z" fill="#fff"/><path d="M16,42h4v5.5l1.5.5L23,50.5q-1.7,3.3-8.5,1.5L13,49.5,16,48Z" fill="#fff"/><path d="M16,54h4v5.5l1.5.5L23,62.5q-1.7,3.3-8.5,1.5L13,61.5,16,60Z" fill="#fff"/><path d="M16,66h4v5.5l1.5.5L23,74.5q-1.7,3.3-8.5,1.5L13,73.5,16,72Z" fill="#fff"/></svg>