<svg xmlns="http://www.w3.org/2000/svg" width="100" height="100" viewBox="0 0 100 100"><g fill="rgba(0,0,0,0)" stroke="rgba(0,0,0,0)" stroke-width="1"><rect width="100" height="100" stroke="none"/><rect x="0.5" y="0.5" width="99" height="99" fill="none"/></g><path d="M19.5,8l1.5.5-4,3L16.5,13,16,11.5Z" fill="rgba(255,255,255,0.85)"/><path d="M79.5,8,83,10.5,80.5,9Z" fill="rgba(255,255,255,0.85)"/><path d="M13.5,24,13,25.5l1,2-2-1Z" fill="rgba(255,255,255,0.85)"/><path d="M13.5,36,13,37.5l1,2-2-1Z" fill="rgba(255,255,255,0.85)"/><path d="M13.5,48,13,49.5l1,2-2-1Z" fill="rgba(255,255,255,0.85)"/><path d="M13.5,60,13,61.5l1,2-2-1Z" fill="rgba(255,255,255,0.85)"/><path d="M13.5,72,13,73.5l1,2-2-1Z" fill="rgba(255,255,255,0.85)"/><path d="M16.5,87,19,90.5l-3-2Z" fill="rgba(255,255,255,0.85)"/><path d="M82.5,89l-1,2Z" fill="rgba(0,0,0,0.85)"/><path d="M21.5,8h57L83,11.5l1,2v73L80.5,91l-2,1h-57L17,88.5,16,78h8V75q-2.7,1.9-9.5,1L13,73.5,16,72V66h8V63q-2.7,1.9-9.5,1L13,61.5,16,60V54h8V51q-2.7,1.9-9.5,1L13,49.5,16,48V42h8V39q-2.7,1.9-9.5,1L13,37.5,16,36V30h8V27q-2.7,1.9-9.5,1L13,25.5,16,24V13.5L19.5,9ZM34,26V50H70V26Z" fill="#fff"/><path d="M40,32H63.5l.5,4H40.5Z" fill="#fff"/><path d="M40,40H63.5l.5,4H40.5Z" fill="#fff"/><path d="M0,0H100V100H0ZM20,8l-4,4V24H14l-2,3,2,1H24l-1,2H16v6H14l-2,3,2,1H24l-1,2H16v6H14l-2,3,2,1H24l-1,2H16v6H14l-2,3,2,1H24l-1,2H16v6H14l-2,3,2,1H24l-1,2H16V89l5,3H80l2-1,2-3V13l-1-2L81,8Z" fill="rgba(0,0,0,0)"/><path d="M34,26H70V50H34Zm6,6,1,4H64V32Zm0,8,1,4H64V40Z" fill="rgba(0,0,0,0)"/></svg>