<svg xmlns="http://www.w3.org/2000/svg" width="100" height="100" viewBox="0 0 100 100"><g fill="rgba(0,0,0,0)" stroke="rgba(0,0,0,0)" stroke-width="1"><rect width="100" height="100" stroke="none"/><rect x="0.5" y="0.5" width="99" height="99" fill="none"/></g><path d="M0,0H100V72.5H99L96.5,68,81,61l-1-5.5,3-4v-3l3-3v-7Q87.8,27.8,82.5,24L77,23V20H70l1,9.5-1,1v12l-7,13v6L80.5,70,87,76.5,88,80h12v20H.5L0,99.5V80H11.5l.5-1.5L19.5,70,37,61.5v-6l-7-12-1-5q2.5-1.5,1-7-2.5-1.5-1-7L30,20q-10.9-.1-15,7.5-2.5,3.5-1,11v7l3,3,3,10L17.5,62Q7.8,64.3,2,70.5L.5,74ZM48,10l-7,3L33,23V33l1,1-1,3v5l5,10,3,3-1,9-4,3L20,74l-6,8q-1,4,1,4H86q1-7-3-9l-5-5L62,65l-3-6V55l4-6q-2-5,2-4l2-4-1-5,1-3q1-10-2-14-2-5-8-5l-2-2Q54,9,48,10Z" fill="rgba(0,0,0,0)"/><path d="M51.5,10l2.5.5-2.5.5Z" fill="rgba(255,255,255,0.96)"/><path d="M38.5,15l-1,2Z" fill="rgba(0,0,0,0.96)"/><path d="M81.5,24l2,3Z" fill="rgba(0,0,0,0.96)"/><path d="M66.5,26l.5,3.5H66Z" fill="rgba(255,255,255,0.96)"/><path d="M68.5,46l-1,2Z" fill="rgba(0,0,0,0.96)"/><path d="M80.5,60l1,2Z" fill="rgba(0,0,0,0.96)"/><path d="M95.5,68l2,3Z" fill="rgba(0,0,0,0.96)"/><path d="M16.5,71l-2,3Z" fill="rgba(0,0,0,0.96)"/><path d="M83.5,71l2,3Z" fill="rgba(0,0,0,0.96)"/><path d="M20.5,74l-1,2Z" fill="rgba(0,0,0,0.96)"/><path d="M79.5,74l1,2Z" fill="rgba(0,0,0,0.96)"/><path d="M.5,76,2,79.5l-2-1Z" fill="rgba(255,255,255,0.96)"/><path d="M99.5,76l.5,2.5-2,1Z" fill="rgba(255,255,255,0.96)"/><path d="M85.5,84l-1,2Z" fill="rgba(0,0,0,0.96)"/><path d="M46.5,11h7l.5,1.5,10,6q3.8,4.7,2,15l-1,2q2.3,1.3,1,6l-3,3-4,9v10L64.5,68A45.686,45.686,0,0,1,82,76l3,5.5v3L83.5,86h-67q-2.2-.7-1.5-4.5L18,76a45.686,45.686,0,0,1,17.5-8L41,63.5v-10q-4-3.2-4-9.5-2.7,1.1-2-1.5-2.3-1.3-1-6l1-2-2-8Q34.5,18,40.5,14Z" fill="#fff"/><path d="M75.5,20l3,4q5-.5,5.5,3.5l2,8-2,4q2.2,1.2,1,6l-5,8v7L84.5,64l9,3L98,71.5l1,7L97.5,80H89l-5.5-9L64,62V55.5l7-13V21Z" fill="#fff"/><path d="M24.5,21q7.2-2.3,4.5,5.5l-1,2,1,1v14l7,12V62L19.5,69,14,73.5,11,80H2.5L1,78.5v-5L4.5,69l13-6L20,60.5v-6l-5-9v-7l-1-6A14.206,14.206,0,0,1,20.5,23Z" fill="#fff"/><path d="M63.5,17l1,2Z" fill="rgba(0,0,0,0.35)"/><path d="M70.5,23l.5,3.5H70Z" fill="rgba(255,255,255,0.96)"/><path d="M82.5,24l1,2Z" fill="rgba(0,0,0,0.35)"/><path d="M70.5,30l.5,2.5H70Z" fill="rgba(255,255,255,0.96)"/><path d="M65.5,35l1,2Z" fill="rgba(0,0,0,0.35)"/><path d="M70.5,36l.5,4.5H70Z" fill="rgba(255,255,255,0.96)"/><path d="M34.5,43,37,46.5H36Z" fill="rgba(255,255,255,0.96)"/><path d="M65.5,43l-1,2Z" fill="rgba(0,0,0,0.35)"/><path d="M40.5,59l.5,3.5H40Z" fill="rgba(255,255,255,0.96)"/><path d="M59.5,59l.5,3.5H59Z" fill="rgba(255,255,255,0.96)"/><path d="M36.5,61l-1,2Z" fill="rgba(0,0,0,0.35)"/><path d="M63.5,61l1,2Z" fill="rgba(0,0,0,0.35)"/><path d="M4.5,68l-2,3Z" fill="rgba(0,0,0,0.35)"/><path d="M96.5,68l1,2Z" fill="rgba(0,0,0,0.35)"/><path d="M17.5,71l-4,5Z" fill="rgba(0,0,0,0.35)"/><path d="M82.5,71l4,5Z" fill="rgba(0,0,0,0.35)"/><path d="M19.5,74l-2,3Z" fill="rgba(0,0,0,0.35)"/><path d="M80.5,74l2,3Z" fill="rgba(0,0,0,0.35)"/><path d="M70.5,20l2.5.5-2.5.5Z" fill="rgba(255,255,255,0.96)"/><path d="M19.5,23l-3,4Z" fill="rgba(0,0,0,0.76)"/><path d="M33.5,37l.5,3.5H33Z" fill="rgba(255,255,255,0.96)"/><path d="M66.5,37l.5,2.5H66Z" fill="rgba(255,255,255,0.96)"/><path d="M15.5,46l1,2Z" fill="rgba(0,0,0,0.76)"/><path d="M31.5,46l1,2Z" fill="rgba(0,0,0,0.76)"/><path d="M39.5,52l1,2Z" fill="rgba(0,0,0,0.76)"/><path d="M35.5,54l1,2Z" fill="rgba(0,0,0,0.76)"/><path d="M36.5,58l.5,2.5H36Z" fill="rgba(255,255,255,0.96)"/><path d="M63.5,58l.5,2.5H63Z" fill="rgba(255,255,255,0.96)"/><path d="M19.5,60l-1,2Z" fill="rgba(0,0,0,0.76)"/><path d="M14.5,83,16,85.5l-2-1Z" fill="rgba(255,255,255,0.96)"/></svg>